<?xml version="1.0" encoding="UTF-8" standalone="no"?>
<!-- Created with Inkscape (http://www.inkscape.org/) -->
<svg
   xmlns:dc="http://purl.org/dc/elements/1.1/"
   xmlns:cc="http://web.resource.org/cc/"
   xmlns:rdf="http://www.w3.org/1999/02/22-rdf-syntax-ns#"
   xmlns:svg="http://www.w3.org/2000/svg"
   xmlns="http://www.w3.org/2000/svg"
   xmlns:sodipodi="http://sodipodi.sourceforge.net/DTD/sodipodi-0.dtd"
   xmlns:inkscape="http://www.inkscape.org/namespaces/inkscape"
   width="320.12723"
   height="306.84045"
   id="svg2"
   sodipodi:version="0.32"
   inkscape:version="0.44.1"
   sodipodi:docbase="C:\Documents and Settings\Molumen\Desktop"
   sodipodi:docname="artmaster_santas_cap.svg"
   version="1.0">
  <defs
     id="defs4" />
  <sodipodi:namedview
     id="base"
     pagecolor="#ffffff"
     bordercolor="#666666"
     borderopacity="1.0"
     inkscape:pageopacity="0.0"
     inkscape:pageshadow="2"
     inkscape:zoom="1.2187708"
     inkscape:cx="231.3574"
     inkscape:cy="173.72364"
     inkscape:document-units="px"
     inkscape:current-layer="layer1"
     inkscape:window-width="1127"
     inkscape:window-height="870"
     inkscape:window-x="80"
     inkscape:window-y="78" />
  <metadata
     id="metadata7">
    <rdf:RDF>
      <cc:Work
         rdf:about="">
        <dc:format>image/svg+xml</dc:format>
        <dc:type
           rdf:resource="http://purl.org/dc/dcmitype/StillImage" />
        <dc:title>santa cap</dc:title>
        <dc:subject>
          <rdf:Bag>
            <rdf:li>santa</rdf:li>
            <rdf:li>cap</rdf:li>
            <rdf:li>head</rdf:li>
            <rdf:li>hat</rdf:li>
            <rdf:li>christmas</rdf:li>
            <rdf:li>red</rdf:li>
            <rdf:li>white</rdf:li>
          </rdf:Bag>
        </dc:subject>
        <cc:license
           rdf:resource="http://web.resource.org/cc/PublicDomain" />
      </cc:Work>
      <cc:License
         rdf:about="http://web.resource.org/cc/PublicDomain">
        <cc:permits
           rdf:resource="http://web.resource.org/cc/Reproduction" />
        <cc:permits
           rdf:resource="http://web.resource.org/cc/Distribution" />
        <cc:permits
           rdf:resource="http://web.resource.org/cc/DerivativeWorks" />
      </cc:License>
    </rdf:RDF>
  </metadata>
  <g
     inkscape:label="Ebene 1"
     inkscape:groupmode="layer"
     id="layer1"
     transform="translate(-131.2134,-102.2376)">
    <path
       style="fill:#b00705"
       d="M 413.93286,329.38694 C 410.74507,328.0486 403.37091,323.61501 397.54582,319.53452 C 391.72073,315.45404 385.64446,312.11236 384.04299,312.10858 C 382.44152,312.10481 378.39243,310.43192 375.04504,308.39106 C 363.06105,301.08464 318.10604,288.22169 304.55464,288.22169 C 300.60513,288.22169 295.54187,287.07871 293.30294,285.68175 C 286.61348,281.50788 273.88297,280.33353 270.62658,283.5899 C 269.08999,285.12649 264.78479,286.38371 261.0595,286.38371 C 257.33419,286.38371 251.39686,287.25109 247.86542,288.31122 C 230.78151,293.43978 212.9559,294.26348 212.9559,289.92438 C 212.9559,289.05825 215.43717,285.52359 218.46985,282.06956 C 225.42247,274.15097 225.42413,270.48982 218.47687,266.53992 C 215.44804,264.81788 211.69604,260.73924 210.13905,257.47624 C 207.58176,252.11693 207.5946,250.01494 210.27186,235.72728 C 211.90189,227.02835 215.33116,214.39686 217.89245,207.65733 C 222.17884,196.37848 222.45742,193.86826 221.39405,176.10481 C 220.34018,158.49985 219.83849,156.47729 215.67834,153.06099 C 213.13211,150.97002 211.11792,147.36937 211.11792,144.90854 C 211.11792,142.48443 209.32264,138.59007 207.12838,136.2544 C 204.93412,133.91874 203.66185,131.48473 204.30108,130.84548 C 207.49355,127.65304 236.87532,122.70232 258.94738,121.63782 C 288.5612,120.20958 289.29498,120.4705 306.92674,138.69909 C 335.02836,167.75192 347.27627,183.37978 382.8164,235.53128 C 405.13953,268.28821 413.61114,285.04278 417.89472,304.90678 C 423.98377,333.14314 423.91353,333.57716 413.93286,329.38694 z "
       id="path9641"
       sodipodi:nodetypes="csssssssssssssssssssssssc" />
    <path
       style="fill:#8e0404"
       d="M 417.14737,330.60375 C 415.8241,329.78591 415.48953,328.65442 416.40389,328.08931 C 417.31825,327.52421 419.14905,327.73098 420.47232,328.54881 C 421.7956,329.36664 422.13016,330.49814 421.2158,331.06324 C 420.30144,331.62835 418.47065,331.42158 417.14737,330.60375 z M 393.12997,316.54318 C 389.62038,314.10793 385.48492,312.11236 383.94006,312.10858 C 382.3952,312.10481 378.39243,310.43192 375.04504,308.39106 C 363.06105,301.08464 318.10604,288.22169 304.55464,288.22169 C 300.60513,288.22169 295.54187,287.07871 293.30294,285.68175 C 286.61348,281.50788 273.88297,280.33353 270.62658,283.5899 C 269.08999,285.12649 264.78479,286.38371 261.0595,286.38371 C 257.33419,286.38371 251.39686,287.25109 247.86542,288.31122 C 230.78151,293.43978 212.9559,294.26348 212.9559,289.92438 C 212.9559,289.05825 215.43717,285.52359 218.46985,282.06956 C 225.42247,274.15097 225.42413,270.48982 218.47687,266.53992 C 215.44804,264.81788 211.67466,260.69419 210.09155,257.37615 C 207.44181,251.82258 207.49794,249.91477 210.79822,233.35904 C 212.76999,223.46767 216.16527,211.70832 218.34326,207.22715 C 220.52125,202.74598 222.79379,195.56444 223.39334,191.26815 C 224.23155,185.26178 225.27514,183.45674 227.90957,183.45674 C 229.79397,183.45674 231.33571,182.62211 231.33571,181.60203 C 231.33571,180.58193 233.81699,177.1509 236.84966,173.9775 C 244.16942,166.31808 243.85007,164.42799 235.47117,165.81891 C 220.77442,168.25865 221.50527,168.5928 219.80512,158.65658 C 218.31616,149.9546 218.50271,149.26043 223.40677,145.25444 C 227.5459,141.87332 230.0469,141.22854 235.93067,142.02567 C 245.6252,143.33907 260.44097,139.21218 270.56801,132.37754 C 281.70267,124.86283 291.95542,123.2027 296.46383,128.18442 C 298.87583,130.84966 299.30647,132.59438 297.96251,134.25624 C 296.92531,135.53883 295.46951,141.10054 294.72743,146.61562 C 293.98532,152.13073 291.77368,158.81325 289.81264,161.46569 C 284.51242,168.63463 285.01367,176.14429 291.26074,183.16049 C 303.95931,197.42253 315.47946,207.91274 322.31581,211.43913 C 326.35937,213.52492 330.66714,216.65047 331.88862,218.38476 C 333.11011,220.11907 339.52007,226.76217 346.13298,233.14723 C 355.01472,241.72292 358.15645,246.03365 358.15645,249.64438 C 358.15645,252.96935 360.80121,257.21503 366.42737,262.9218 C 374.96022,271.57691 376.66326,275.35582 372.03099,275.35582 C 367.5651,275.35582 350.0847,270.41672 340.52772,266.45456 C 318.57204,257.35211 261.0479,245.70122 236.15836,245.3157 C 220.33777,245.07064 217.56865,245.46597 217.0484,248.0439 C 216.64391,250.04828 219.99495,253.28234 227.04683,257.69333 C 235.51021,262.98721 239.52235,264.3394 246.90105,264.38469 C 258.77057,264.45753 279.35791,267.13936 295.17998,270.67382 C 302.01756,272.20125 315.57677,275.16548 325.31154,277.26096 C 336.55572,279.68136 345.23293,282.71014 349.10289,285.56531 C 352.45336,288.03721 356.80433,290.05967 358.77171,290.05967 C 360.73909,290.05967 365.74774,291.62397 369.90202,293.5359 C 374.0563,295.44781 382.37061,298.98373 388.37827,301.39349 C 397.83271,305.1858 399.51652,306.60542 400.90204,311.95235 C 403.08863,320.39067 400.70442,321.79899 393.12997,316.54318 z "
       id="path9643"
       sodipodi:nodetypes="csssccsssssssssssssssssssssssssssssssssssssssssssssc" />
    <path
       style="fill:#760305"
       d="M 392.4077,315.55465 C 385.22775,311.91851 368.15603,304.11701 362.17935,301.7408 C 351.68764,297.56946 314.87856,288.81005 307.84139,288.81005 C 303.92394,288.81005 297.98341,287.19761 294.64024,285.22684 C 287.49591,281.01535 272.93889,278.20723 272.93889,281.04053 C 272.93889,282.08015 268.59666,283.76852 263.28949,284.79246 C 257.98232,285.8164 246.35342,288.08215 237.44752,289.82746 C 218.03075,293.6326 214.63821,292.17861 222.1377,283.26598 C 229.54528,274.46258 228.29522,269.46956 216.79754,261.93596 C 214.50839,260.43606 212.14507,257.25508 211.54575,254.86716 C 210.02994,248.8277 216.90692,215.96962 220.92524,210.05209 L 224.23238,205.18188 L 224.78186,213.64987 C 225.21649,220.34797 226.23629,222.60218 229.66106,224.43505 C 235.2629,227.43308 237.43677,225.92562 240.03963,217.23807 C 241.75319,211.51869 243.53791,209.60982 249.281,207.35386 C 253.47323,205.7071 257.71608,202.26252 259.60395,198.97311 C 263.30083,192.53168 274.4782,186.79521 279.94903,188.53157 C 282.00514,189.18417 286.94633,192.78389 290.92946,196.531 C 294.91259,200.27809 302.52356,206.99476 307.84273,211.45691 C 319.75697,221.45157 328.07834,234.13553 328.07834,242.30136 C 328.07834,247.84588 328.56618,248.37445 333.68356,248.37445 C 344.08566,248.37445 357.13009,258.65551 352.54522,263.24037 C 350.70928,265.07632 330.67388,259.16441 320.27688,253.7189 C 316.49152,251.73628 307.80706,249.33452 300.97808,248.38167 C 294.14909,247.42881 280.29082,245.39547 270.18192,243.86314 C 260.07302,242.33082 244.52478,241.18928 235.63026,241.32638 C 221.51522,241.54397 219.11917,242.06005 216.79094,245.38402 C 213.00531,250.78877 213.28387,251.47428 221.32968,256.55336 C 225.29307,259.05535 229.12647,262.99442 229.84831,265.30684 C 230.57016,267.61926 232.02615,270.06616 233.08386,270.7444 C 234.14157,271.42265 243.93927,271.50635 254.85657,270.93042 C 271.2916,270.06339 277.795,270.57751 292.66187,273.91905 C 328.18075,281.90245 345.43391,287.24756 350.23661,291.75602 C 353.16878,294.50853 357.80084,296.44177 362.56263,296.90042 C 366.75835,297.30456 372.5298,299.30044 375.38808,301.33571 C 378.24634,303.37098 383.86537,305.62861 387.8748,306.35268 C 396.62723,307.93331 399.75962,310.15096 399.75962,314.76683 C 399.75962,318.70158 398.8204,318.80223 392.4077,315.55465 z M 225.13332,232.77335 C 226.97884,230.54963 226.81439,229.81212 224.25388,228.82958 C 221.03929,227.59601 217.25935,231.30975 218.94818,234.04233 C 220.32743,236.27401 222.61806,235.80406 225.13332,232.77335 z M 225.61086,164.44802 C 224.34725,163.93814 223.31338,161.13772 223.31338,158.22485 C 223.31338,151.8246 227.5728,149.12344 237.66532,149.12344 C 241.64824,149.12344 248.42334,147.8828 252.72109,146.36647 C 261.53888,143.25538 269.26293,142.76414 269.26293,145.31441 C 269.26293,148.14407 248.80784,159.58999 238.14315,162.72794 C 232.65248,164.34347 228.10348,165.59999 228.03424,165.52019 C 227.96498,165.44038 226.87448,164.95791 225.61086,164.44802 z "
       id="path9645"
       sodipodi:nodetypes="cssssssssscccsssssssssssssssssssssssssccssccssssssc" />
    <path
       sodipodi:type="star"
       style="opacity:1;color:black;fill:white;fill-opacity:1;fill-rule:evenodd;stroke:none;stroke-width:11.41900158;stroke-linecap:round;stroke-linejoin:round;marker:none;marker-start:none;marker-mid:none;marker-end:none;stroke-miterlimit:4;stroke-dasharray:none;stroke-dashoffset:0;stroke-opacity:1;visibility:visible;display:block"
       id="path9647"
       sodipodi:sides="23"
       sodipodi:cx="662.14258"
       sodipodi:cy="459.14154"
       sodipodi:r1="144.5569"
       sodipodi:r2="130.10121"
       sodipodi:arg1="0.88187194"
       sodipodi:arg2="1.0184629"
       inkscape:flatsided="false"
       inkscape:rounded="0.5"
       inkscape:randomized="0.04"
       d="M 749.67143,572.02285 C 740.41461,579.20572 739.95767,568.22013 729.51978,573.93965 C 719.08189,579.65917 727.26285,589.34026 716.39274,593.93366 C 705.52263,598.52706 707.9727,576.70909 696.46293,579.55235 C 684.95315,582.3956 699.29374,606.40437 687.35446,607.47493 C 675.41518,608.5455 672.26427,590.39294 660.23993,589.75286 C 648.21559,589.11278 654.86081,606.74766 643.2437,604.89097 C 631.62658,603.03428 636.72998,589.8465 625.0749,587.42966 C 613.41982,585.01282 617.88937,596.33148 607.1479,591.62381 C 596.40642,586.91615 602.23651,581.4258 591.67906,575.69275 C 581.12162,569.95969 577.08096,574.05968 568.10408,566.11193 C 559.1272,558.16417 578.58152,551.44005 570.06817,542.93443 C 561.55481,534.42881 548.34658,547.54732 541.31613,538.14758 C 534.28569,528.74784 546.63937,528.33427 541.2165,518.02929 C 535.79363,507.72431 525.09543,517.67993 521.20059,506.40363 C 517.30575,495.12733 536.87408,496.00022 534.65658,484.47466 C 532.43909,472.94909 513.92548,483.29027 513.75157,471.28109 C 513.57765,459.2719 528.55514,457.41003 528.83403,445.68985 C 529.11291,433.96966 516.78923,436.50392 519.44957,425.19148 C 522.1099,413.87904 534.78107,432.03155 538.18018,420.88046 C 541.57929,409.72938 532.01945,404.99661 537.43112,394.69711 C 542.84278,384.39762 544.56,394.33068 551.17022,384.60554 C 557.78045,374.8804 551.62788,366.57416 560.1634,358.28934 C 568.69893,350.00451 566.2974,371.35451 575.45594,364.12836 C 584.61449,356.9022 572.10296,345.78118 581.83592,339.09917 C 591.56887,332.41715 599.15071,339.93939 609.58255,334.71206 C 620.01439,329.48472 613.16821,322.38152 624.28272,318.62781 C 635.39723,314.8741 630.72413,337.43597 642.56193,335.71119 C 654.39973,333.98641 652.98528,309.76276 664.7028,310.22158 C 676.42031,310.6804 671.32559,329.67952 682.94368,331.38082 C 694.56177,333.08212 692.65296,319.59679 704.23833,322.1133 C 715.82369,324.62981 702.88333,329.89843 714.01215,334.06159 C 725.14096,338.22476 725.93791,332.67782 735.84822,338.84816 C 745.75853,345.0185 732.62994,356.27486 742.40119,363.30607 C 752.17244,370.33728 753.51174,356.4186 761.43355,365.099 C 769.35535,373.7794 761.82993,368.67941 768.41953,378.71745 C 775.00913,388.75548 786.67981,376.4079 791.83883,387.05861 C 796.99785,397.70931 778.46051,398.05801 782.82883,409.2511 C 787.19715,420.44419 798.71915,417.8506 801.45867,429.3391 C 804.19819,440.8276 792.80667,437.83902 794.33392,449.71978 C 795.86117,461.60054 807.55278,452.08236 806.18064,463.59172 C 804.80851,475.10108 791.22064,467.25352 789.51384,479.11534 C 787.80704,490.97716 798.96785,490.73259 795.46716,501.98556 C 791.96647,513.23854 780.59365,506.07977 774.66103,516.38787 C 768.7284,526.69597 789.54931,531.5753 782.43134,541.19262 C 775.31337,550.80994 759.93206,543.39225 752.02692,552.12297 C 744.12177,560.85369 758.92825,564.83999 749.67143,572.02285 z "
       transform="matrix(0.241437,0,0,0.241437,28.24556,51.89105)" />
    <path
       style="opacity:1;color:black;fill:white;fill-opacity:1;fill-rule:evenodd;stroke:none;stroke-width:2.75697255;stroke-linecap:round;stroke-linejoin:round;marker:none;marker-start:none;marker-mid:none;marker-end:none;stroke-miterlimit:4;stroke-dasharray:none;stroke-dashoffset:0;stroke-opacity:1;visibility:visible;display:block"
       d="M 279.82625,275.02066 C 277.80243,276.03317 278.14308,282.65123 274.87794,280.03179 C 274.06089,278.41964 274.77621,274.56151 271.66526,275.99634 C 270.05743,279.67469 265.55407,280.73721 265.57131,275.19807 C 261.75687,271.61187 260.99591,281.97373 257.12257,279.49459 C 257.12997,273.3964 252.63794,275.23713 250.39446,278.67714 C 244.77901,276.72694 242.56005,280.58429 239.03782,282.62035 C 236.10373,282.1163 238.04582,276.34491 234.33788,277.01557 C 232.56479,280.44354 227.05438,286.07809 226.5984,278.33171 C 222.91221,277.54521 219.54808,283.65188 214.46961,281.48683 C 211.89209,282.5869 214.64389,287.95645 210.97073,287.42625 C 210.92837,284.73035 208.42356,284.24041 207.51195,286.83998 C 206.33501,292.83477 199.66169,293.25041 201.2409,300.36176 C 199.82903,301.52165 197.56113,297.74586 196.87452,300.58341 C 200.06656,304.7137 197.54409,307.82516 194.25379,311.20041 C 194.09556,314.22136 200.6129,312.3638 198.56687,316.17962 C 196.56868,316.72901 193.30755,319.34567 196.04101,321.25364 C 199.23485,320.85599 201.01942,324.72009 198.55349,326.76625 C 198.61981,331.09761 206.41346,327.08532 206.02172,331.49234 C 201.15642,334.71086 206.87221,337.52983 209.92129,338.44638 C 211.35696,340.0529 213.38834,345.18865 216.00403,342.19412 C 219.14334,341.21458 219.0645,345.42135 220.83561,346.71558 C 223.74135,346.35709 226.74165,340.23845 229.4144,347.25455 C 234.26237,352.55274 232.25027,343.73101 234.89126,342.46384 C 237.79034,342.11918 237.15999,349.1401 240.5733,345.70001 C 240.62699,341.08155 248.39614,340.4786 249.22882,343.51152 C 252.08771,346.88038 252.42159,341.0303 255.05581,341.26867 C 258.13579,344.06794 262.10592,349.59514 264.2441,342.79385 C 266.46245,338.26111 266.27239,346.41745 269.48286,343.48443 C 268.90366,347.85512 273.87957,344.44114 275.45267,343.39972 C 280.35279,346.28273 283.47113,343.75089 287.18871,342.0484 C 290.17719,342.85219 286.98754,348.59841 290.72378,348.66887 C 293.07326,348.2198 296.23886,341.92549 298.35829,345.8356 C 296.90419,351.49125 301.10646,349.66864 303.69662,348.56713 C 308.38371,344.49222 308.89887,352.43862 311.48085,354.02595 C 314.20917,354.08582 314.09377,346.80932 317.27908,349.6388 C 316.23411,352.54765 318.79521,356.44419 321.35932,353.18857 C 322.8509,350.34424 325.81834,352.13157 327.50867,353.54321 C 330.82219,351.82685 327.98949,357.097 331.20361,356.943 C 332.81039,356.71262 334.04724,353.79568 335.89344,355.48772 C 337.66773,356.98985 337.18999,363.24033 340.58965,362.07567 C 343.69006,356.68292 342.45454,358.31273 342.61457,362.55314 C 343.95358,365.48155 346.86472,360.96319 348.55134,363.21658 C 348.51083,366.79826 350.85174,375.27927 354.38543,367.82048 C 357.02947,364.75245 358.54427,369.91575 357.03787,371.94299 C 358.53447,374.61242 361.00788,371.50918 362.74177,371.18953 C 365.41626,372.70732 369.0863,373.51652 368.05503,376.98459 C 369.37801,380.22144 372.29941,375.30708 374.04882,377.65496 C 375.82714,379.47469 373.45008,385.38518 377.1741,385.2671 C 377.85357,382.06896 384.22491,379.29614 382.71808,384.39386 C 380.96088,386.90074 384.77061,388.55279 386.22347,386.55073 C 388.02002,384.65138 390.85332,386.13432 391.62513,388.23793 C 394.47869,390.16562 394.44021,386.83083 395.76238,385.61619 C 398.7705,384.04067 402.76313,390.97011 405.00083,387.20154 C 404.59488,385.25643 404.97639,381.83063 407.77714,382.44724 C 409.78146,384.52409 414.14336,383.99344 413.82737,380.4846 C 413.91298,377.14484 417.36251,377.21967 419.29792,378.58181 C 421.27516,378.45817 421.74795,376.25375 420.18358,375.10215 C 419.94864,372.5863 422.98675,372.38227 424.56808,371.87401 C 427.24824,369.77145 422.56211,364.43625 426.36232,363.29738 C 428.50267,364.42208 431.33382,362.15612 429.86384,360.1934 C 427.06591,359.42836 426.63408,356.33733 428.07021,354.47884 C 429.24625,351.69403 426.87785,351.67035 425.30675,350.55581 C 423.26493,347.26123 430.26898,346.15543 427.10317,342.79826 C 425.27596,341.47697 423.01182,338.88949 425.18265,337.29093 C 424.82658,333.32829 418.9697,336.9998 418.8702,333.05242 C 420.94283,331.25015 420.44078,325.57012 416.74162,327.5713 C 413.54858,330.65775 407.93807,328.58991 411.63646,324.01535 C 409.21455,321.2021 402.72472,324.35595 399.84502,319.63188 C 397.85465,319.70871 395.79831,322.42608 393.96155,319.95851 C 391.93554,318.08512 396.68976,314.22834 393.32425,312.82225 C 391.05895,312.52926 385.51427,316.97588 385.18779,312.64371 C 388.84095,307.74455 383.20465,307.55132 380.10203,308.78566 C 378.4515,307.64973 374.78046,306.45629 376.19663,304.261 C 374.74509,300.65788 370.64403,305.49671 369.17864,302.0197 C 369.37483,300.37711 370.26507,295.42123 366.99283,296.19961 C 364.1246,299.58305 357.3833,301.02182 359.87629,294.2935 C 356.48461,292.97635 351.47802,296.59559 347.47576,293.01828 C 345.48712,293.56924 344.02488,296.54504 341.72495,294.63392 C 339.48829,292.94672 343.19488,288.47075 339.48583,287.82377 C 337.16454,288.16431 333.50941,293.47854 331.6563,289.88116 C 332.1224,288.14147 332.53846,284.5746 329.67402,285.24302 C 326.85321,288.15814 321.93081,286.5453 319.71672,283.85962 C 316.94109,281.68726 313.86196,289.7939 312.05283,282.88169 C 310.9093,276.60274 306.04798,279.78635 306.16144,284.46919 C 303.46959,286.10853 303.24951,281.7227 302.7484,280.17791 C 299.05624,278.43727 298.69089,286.3974 294.65545,282.59855 C 290.23577,284.27071 292.77983,279.19845 289.0519,279.0924 C 287.78681,280.66204 285.40796,283.06916 283.77692,280.2052 C 282.60727,278.51393 282.48127,275.05338 279.82625,275.02066 z "
       id="path9649" />
    <path
       style="opacity:1;color:black;fill:black;fill-opacity:1;fill-rule:evenodd;stroke:none;stroke-width:2.75697255;stroke-linecap:round;stroke-linejoin:round;marker:none;stroke-miterlimit:4;stroke-dasharray:none;stroke-dashoffset:0;stroke-opacity:1;visibility:visible;display:block"
       d="M 264.5,273.09375 C 263.74807,272.97006 262.98241,273.18194 262.4375,273.53125 C 261.34767,274.22986 260.77072,275.25924 260.1875,276.1875 C 259.60428,277.11576 259.04663,277.98502 258.65625,278.3125 C 258.50955,278.43556 258.46583,278.4519 258.40625,278.46875 C 258.3018,277.2964 258.05049,276.26349 257.5,275.5 C 256.78597,274.50971 255.5475,274.02662 254.46875,274.125 C 252.63847,274.29192 251.15804,275.5925 249.9375,277.15625 C 247.23636,276.47336 244.97917,276.97516 243.25,277.96875 C 241.58257,278.92686 240.31871,280.07689 239,280.96875 C 238.96521,280.91174 238.90239,280.96601 238.84375,280.84375 C 238.66832,280.47797 238.49438,279.81276 238.3125,279.0625 C 238.13062,278.31224 237.95153,277.44734 237.28125,276.65625 C 236.61097,275.86516 235.34074,275.43071 234.09375,275.65625 C 233.67759,275.73435 233.32041,275.99936 233.125,276.375 C 232.36458,277.84515 230.49505,280.0523 229.34375,280.65625 C 229.05593,280.80724 228.84138,280.8408 228.75,280.84375 C 228.65862,280.8467 228.67558,280.85469 228.625,280.8125 C 228.52384,280.72812 228.0726,280.01422 227.96875,278.25 C 227.93784,277.62393 227.48847,277.09751 226.875,276.96875 C 225.55558,276.68724 224.3351,277.06845 223.28125,277.5625 C 222.2274,278.05655 221.27059,278.69593 220.34375,279.25 C 218.49006,280.35815 217.00813,281.07485 215,280.21875 C 214.66006,280.07679 214.27744,280.07679 213.9375,280.21875 C 212.83931,280.68746 212.21863,281.74737 212,282.625 C 211.78137,283.50263 211.79348,284.31052 211.75,284.96875 C 211.7404,285.11404 211.73519,285.09599 211.71875,285.21875 C 211.27938,284.48887 210.64736,283.93191 209.8125,283.78125 C 208.26628,283.50221 206.81397,284.67765 206.21875,286.375 C 206.19346,286.43592 206.17257,286.49859 206.15625,286.5625 C 205.6615,289.08252 204.05318,290.40943 202.34375,292.25 C 200.92927,293.773 199.64229,295.87349 199.71875,298.78125 C 199.60445,298.71892 199.56481,298.6932 199.4375,298.625 C 198.96171,298.37011 198.3491,297.97047 197.375,298.15625 C 196.88795,298.24914 196.39301,298.57752 196.09375,298.96875 C 195.79449,299.35998 195.64569,299.77704 195.53125,300.25 C 195.42652,300.6632 195.51881,301.1016 195.78125,301.4375 C 197.16742,303.23111 197.22233,304.34333 196.71875,305.6875 C 196.21517,307.03167 194.90152,308.5879 193.28125,310.25 C 193.04487,310.48322 192.90062,310.79393 192.875,311.125 C 192.80998,312.36649 193.64811,313.4489 194.46875,313.90625 C 195.28939,314.3636 196.1235,314.53817 196.75,314.71875 C 197.31268,314.88093 197.54405,315.04555 197.5625,315.03125 C 197.55841,315.05218 197.51019,315.12069 197.5,315.15625 C 196.36953,315.59861 195.25504,316.28852 194.4375,317.375 C 193.94384,318.03106 193.53629,318.86726 193.625,319.84375 C 193.71371,320.82024 194.33988,321.73973 195.25,322.375 C 195.53022,322.5767 195.87592,322.66591 196.21875,322.625 C 197.24119,322.4977 197.84789,322.98338 198.15625,323.65625 C 198.46461,324.32912 198.46655,325.07232 197.6875,325.71875 C 197.37079,325.98068 197.18746,326.37026 197.1875,326.78125 C 197.21045,328.2806 198.19481,329.55319 199.28125,330 C 200.36769,330.44681 201.45529,330.42427 202.40625,330.46875 C 203.35721,330.51323 204.18449,330.61923 204.46875,330.75 C 204.61088,330.81538 204.57804,330.84636 204.59375,330.875 C 204.59568,330.87853 204.59079,330.93099 204.59375,330.9375 C 203.6331,331.72967 202.92276,332.59731 202.78125,333.625 C 202.60525,334.90319 203.25973,336.02833 204.03125,336.8125 C 205.44521,338.24965 207.44569,339.0714 209.0625,339.59375 C 209.53796,340.20281 210.35494,341.71512 211.5,342.96875 C 212.1095,343.63604 212.84899,344.30853 213.9375,344.46875 C 214.8245,344.59931 215.72914,344.15352 216.5,343.5 C 216.85666,343.40777 217.01904,343.43647 217.125,343.5 C 217.24685,343.57306 217.47231,343.79743 217.71875,344.25 C 218.21162,345.15514 218.56338,346.77111 220.03125,347.84375 C 220.31147,348.04545 220.65717,348.13466 221,348.09375 C 222.17077,347.94931 223.03597,347.32721 223.8125,346.78125 C 224.58903,346.23529 225.2995,345.71595 225.8125,345.46875 C 226.3255,345.22155 226.40568,345.19844 226.65625,345.34375 C 226.90682,345.48906 227.51108,346.13844 228.125,347.75 C 228.19014,347.91236 228.28559,348.06083 228.40625,348.1875 C 229.06052,348.90253 229.6075,349.41239 230.1875,349.78125 C 230.7675,350.15011 231.43839,350.42393 232.1875,350.28125 C 232.93661,350.13857 233.49885,349.57307 233.78125,349.09375 C 234.06365,348.61443 234.18906,348.14121 234.3125,347.65625 C 234.55937,346.68633 234.71597,345.66551 234.9375,344.875 C 235.094,344.31655 235.22976,344.21914 235.34375,344.0625 C 235.37191,344.10409 235.35609,344.05561 235.40625,344.125 C 235.65955,344.4754 235.96429,345.13674 236.3125,345.84375 C 236.66071,346.55076 237.02687,347.48536 238.1875,347.90625 C 238.76782,348.1167 239.47522,348.05589 240.03125,347.8125 C 240.58728,347.56911 241.06074,347.16194 241.5625,346.65625 C 241.80156,346.40242 241.93555,346.06743 241.9375,345.71875 C 241.94643,344.95019 242.24414,344.47611 242.75,344.03125 C 243.25586,343.58639 244.02586,343.23275 244.84375,343.09375 C 245.66164,342.95475 246.49436,343.01882 247.0625,343.21875 C 247.63064,343.41868 247.84606,343.65576 247.90625,343.875 C 247.95978,344.07061 248.05582,344.25201 248.1875,344.40625 C 249.03814,345.40863 250.05851,346.07512 251.1875,345.90625 C 252.31649,345.73738 252.87067,344.98665 253.3125,344.40625 C 253.75433,343.82585 254.13749,343.24818 254.4375,342.9375 C 254.56926,342.80106 254.5907,342.85671 254.65625,342.8125 C 255.9797,344.11051 257.49812,345.85457 259.34375,346.84375 C 260.38363,347.40109 261.7845,347.69634 263,347.03125 C 264.14245,346.40613 264.86564,345.1898 265.4375,343.5 C 265.72642,344.02946 266.08536,344.66304 266.90625,345.15625 C 267.29351,345.38893 267.85009,345.43366 268.375,345.40625 C 268.55578,345.86016 268.78074,346.3174 269.1875,346.59375 C 270.19212,347.27629 271.23825,347.0547 272.09375,346.78125 C 273.54419,346.31763 274.73087,345.48458 275.59375,344.90625 C 277.97217,346.0576 280.22488,346.27797 282.125,345.78125 C 283.9796,345.29643 285.52732,344.41349 287.0625,343.65625 C 287.07603,343.7066 287.12486,343.66714 287.15625,343.78125 C 287.25924,344.1556 287.29011,344.88607 287.3125,345.6875 C 287.33489,346.48893 287.32278,347.37033 287.78125,348.3125 C 288.23972,349.25467 289.39659,350.03816 290.6875,350.0625 C 290.78207,350.06176 290.87632,350.05129 290.96875,350.03125 C 292.0833,349.81821 292.81646,349.14102 293.53125,348.5 C 294.24604,347.85898 294.93519,347.16 295.53125,346.65625 C 296.12731,346.1525 296.64176,345.94326 296.71875,345.9375 C 296.75724,345.93462 296.69631,345.932 296.75,345.96875 C 296.77157,345.98351 296.85517,346.13114 296.90625,346.1875 C 296.66158,347.38338 296.60213,348.39561 296.9375,349.28125 C 297.34015,350.34454 298.43935,351.00461 299.375,351.09375 C 301.2463,351.27203 302.95983,350.39242 304.25,349.84375 C 304.37682,349.77869 304.49278,349.69435 304.59375,349.59375 C 305.58867,348.72877 306.00342,348.76407 306.1875,348.8125 C 306.37158,348.86093 306.77322,349.18663 307.21875,349.90625 C 307.66428,350.62587 308.10654,351.62607 308.625,352.59375 C 309.14346,353.56143 309.68479,354.53264 310.75,355.1875 C 310.95569,355.32015 311.19298,355.39565 311.4375,355.40625 C 312.73167,355.43465 313.71151,354.55214 314.25,353.75 C 314.78849,352.94786 315.10751,352.08353 315.4375,351.40625 C 315.62788,351.0155 315.7115,350.96431 315.84375,350.78125 C 315.75618,352.22516 316.02871,353.63731 316.9375,354.65625 C 317.56092,355.35523 318.51836,355.86787 319.59375,355.78125 C 320.66914,355.69463 321.64476,355.03779 322.4375,354.03125 C 322.49502,353.97349 322.54731,353.91075 322.59375,353.84375 C 322.85176,353.35174 323.03218,353.2013 323.21875,353.125 C 323.40532,353.0487 323.65718,353.03711 324.03125,353.125 C 324.7794,353.30078 325.86475,353.95885 326.625,354.59375 C 327.01697,354.92168 327.55819,355.00587 328.03125,354.8125 C 328.08192,355.33953 328.09889,356.06616 328.53125,356.875 C 328.9698,357.69543 330.11197,358.36852 331.28125,358.3125 C 331.3229,358.31439 331.3646,358.31439 331.40625,358.3125 C 332.96954,358.08836 333.71003,357.01515 334.28125,356.59375 C 334.56686,356.38305 334.74794,356.34395 334.75,356.34375 C 334.75206,356.34355 334.70916,356.26209 334.96875,356.5 C 334.979,356.51058 334.98942,356.521 335,356.53125 C 335.06047,356.58244 335.36274,357.05203 335.59375,357.75 C 335.82476,358.44797 336.02362,359.33958 336.3125,360.21875 C 336.60138,361.09792 336.95023,362.00705 337.71875,362.75 C 338.48727,363.49295 339.83307,363.78548 341.03125,363.375 C 341.16508,363.33198 341.29154,363.26875 341.40625,363.1875 C 341.88788,364.1808 342.88279,364.89284 343.8125,364.9375 C 344.76192,364.98311 345.42606,364.65631 346,364.40625 C 346.57394,364.15619 347.05379,363.96002 347.25,363.9375 C 347.27616,363.9345 347.26677,363.94267 347.28125,363.9375 C 347.36124,365.97208 347.80159,368.50684 348.96875,370.375 C 349.29429,370.89606 349.68426,371.3917 350.25,371.75 C 350.81574,372.1083 351.61516,372.29513 352.34375,372.09375 C 353.70711,371.71692 354.55332,370.50765 355.4375,368.71875 C 355.93119,368.14589 356.05122,368.27492 355.90625,368.25 C 355.76128,368.22508 355.8481,368.19278 356,368.53125 C 356.3038,369.20819 356.2246,370.73864 355.9375,371.125 C 355.6125,371.56251 355.57575,372.15043 355.84375,372.625 C 356.35282,373.53301 357.18731,374.19031 358.09375,374.34375 C 359.00019,374.49719 359.7443,374.23496 360.375,373.9375 C 361.48221,373.4153 362.32085,372.89404 362.6875,372.71875 C 363.93408,373.36423 365.23642,373.93036 365.96875,374.46875 C 366.40515,374.78958 366.63694,375.06804 366.75,375.34375 C 366.86306,375.61946 366.90873,375.95488 366.71875,376.59375 C 366.6366,376.89422 366.65863,377.21365 366.78125,377.5 C 367.22544,378.58676 368.22118,379.43623 369.21875,379.5 C 370.21632,379.56377 370.91678,379.18389 371.5,378.90625 C 372.08322,378.62861 372.55277,378.40418 372.75,378.375 C 372.94723,378.34582 372.74763,378.21393 372.9375,378.46875 C 372.97533,378.52379 373.0171,378.57601 373.0625,378.625 C 373.13908,378.70336 373.33381,379.09584 373.40625,379.78125 C 373.47869,380.46666 373.44939,381.3354 373.5,382.25 C 373.55061,383.1646 373.64664,384.13107 374.1875,385.0625 C 374.72836,385.99393 375.9283,386.69717 377.21875,386.65625 C 377.85666,386.63937 378.39961,386.18691 378.53125,385.5625 C 378.61852,385.15174 378.94689,384.55373 379.46875,384.0625 C 379.99061,383.57127 380.66871,383.18044 381.15625,383.03125 C 381.64379,382.88206 381.72015,383.03614 381.59375,382.90625 C 381.46735,382.77636 381.71773,382.94624 381.40625,384 C 380.9771,384.78695 380.78327,385.66021 381,386.4375 C 381.25359,387.347 381.89691,387.99589 382.625,388.375 C 384.03505,389.1092 386.03244,388.97178 387.21875,387.5 C 387.74535,386.94327 388.18199,386.94478 388.8125,387.1875 C 389.44301,387.43022 390.10965,388.08069 390.34375,388.71875 C 390.43952,388.98341 390.614,389.21242 390.84375,389.375 C 391.70872,389.95932 392.59167,390.31894 393.5,390.1875 C 394.40833,390.05606 395.04046,389.40659 395.40625,388.875 C 396.05897,387.92643 396.35473,387.18631 396.5625,386.875 C 396.80683,386.78792 397.0352,386.75223 397.59375,387 C 398.23779,387.28569 399.07551,387.82027 399.9375,388.375 C 400.79949,388.92973 401.70059,389.53581 402.875,389.6875 C 404.04941,389.83919 405.44151,389.16259 406.1875,387.90625 C 406.36449,387.60478 406.42034,387.24734 406.34375,386.90625 C 406.19149,386.17667 406.22176,385.01482 406.46875,384.375 C 406.59225,384.05509 406.74454,383.87458 406.84375,383.8125 C 406.93801,383.75352 407.05649,383.70563 407.4375,383.78125 C 408.77492,384.81273 410.43805,385.28028 412,384.90625 C 412.90003,384.69073 413.75731,384.20328 414.375,383.40625 C 414.96372,382.6466 415.25123,381.63204 415.1875,380.53125 L 415.21875,380.53125 C 415.23407,379.93351 415.35749,379.64076 415.5,379.46875 C 415.64251,379.29674 415.84482,379.18882 416.15625,379.125 C 416.77912,378.99736 417.8378,379.25269 418.5,379.71875 C 418.75496,379.89872 419.06344,379.98686 419.375,379.96875 C 420.86609,379.8755 422.1018,378.83638 422.40625,377.5625 C 422.63784,376.59347 422.24655,375.60978 421.59375,374.78125 C 421.60636,374.64256 421.59934,374.48465 421.65625,374.40625 C 421.74162,374.28866 421.94915,374.15356 422.28125,374 C 422.94546,373.69287 424.01565,373.50388 425,373.1875 C 425.14674,373.13792 425.28408,373.06397 425.40625,372.96875 C 426.45252,372.14796 426.81645,370.86601 426.8125,369.8125 C 426.80855,368.75899 426.58107,367.77848 426.40625,366.9375 C 426.23143,366.09652 426.15885,365.3969 426.21875,365.09375 C 426.27119,364.82834 426.30891,364.80895 426.6875,364.6875 C 428.03596,365.00193 429.3863,364.78064 430.34375,363.96875 C 430.93749,363.46527 431.42997,362.77437 431.59375,361.9375 C 431.75753,361.10063 431.53981,360.13748 430.96875,359.375 C 430.78184,359.129 430.51771,358.95292 430.21875,358.875 C 429.25798,358.6123 428.88852,358.07797 428.71875,357.40625 C 428.54898,356.73453 428.70515,355.89626 429.15625,355.3125 C 429.2323,355.21709 429.29535,355.112 429.34375,355 C 429.70254,354.15039 429.87324,353.37611 429.71875,352.59375 C 429.56426,351.81139 429.05195,351.18892 428.5625,350.8125 C 427.71923,350.16397 426.98382,349.92448 426.4375,349.625 C 426.35175,349.43299 426.29214,349.28337 426.40625,349.0625 C 426.56505,348.75514 427.0219,348.23218 427.59375,347.65625 C 428.1656,347.08032 428.87538,346.4342 429.1875,345.34375 C 429.49962,344.2533 429.08518,342.89511 428.09375,341.84375 C 428.03599,341.78623 427.97325,341.73394 427.90625,341.6875 C 427.1198,341.11881 426.2277,340.18227 425.875,339.5 C 425.69865,339.15886 425.67262,338.92516 425.6875,338.8125 C 425.70238,338.69984 425.6924,338.63276 426,338.40625 C 426.39603,338.11892 426.6101,337.64321 426.5625,337.15625 C 426.44164,335.81119 425.58883,334.69078 424.625,334.25 C 423.66117,333.80922 422.76071,333.81669 422,333.78125 C 421.23929,333.74581 420.61989,333.68125 420.4375,333.59375 C 420.31591,333.53541 420.33018,333.36588 420.3125,333.21875 C 421.30872,331.85049 421.68382,330.13792 421.3125,328.5625 C 421.08842,327.61179 420.57457,326.62213 419.5625,326.09375 C 418.55043,325.56537 417.27005,325.70739 416.09375,326.34375 C 415.97798,326.41144 415.8727,326.49566 415.78125,326.59375 C 414.58543,327.74965 412.91799,327.78807 412.25,327.4375 C 411.91601,327.26221 411.83456,327.15566 411.8125,326.84375 C 411.79044,326.53184 411.93321,325.84664 412.71875,324.875 C 413.12745,324.35901 413.11436,323.62607 412.6875,323.125 C 411.80033,322.09449 410.5594,321.63907 409.40625,321.4375 C 408.2531,321.23593 407.09564,321.22994 406,321.15625 C 404.90436,321.08256 403.88983,320.94973 403.0625,320.625 C 402.23517,320.30027 401.59592,319.83258 401.03125,318.90625 C 400.7667,318.47456 400.28681,318.22262 399.78125,318.25 C 398.17842,318.31188 397.10203,319.17804 396.34375,319.46875 C 395.96461,319.61411 395.73911,319.6153 395.625,319.59375 C 395.51089,319.5722 395.37577,319.54586 395.0625,319.125 C 395.01606,319.058 394.96377,318.99526 394.90625,318.9375 C 394.77017,318.81167 394.77698,318.86797 394.84375,318.46875 C 394.91052,318.06953 395.16522,317.41454 395.4375,316.6875 C 395.70978,315.96046 396.04054,315.14899 395.9375,314.125 C 395.83446,313.10101 394.99848,312.04494 393.84375,311.5625 C 393.7337,311.51651 393.61816,311.485 393.5,311.46875 C 392.42284,311.32944 391.55268,311.67268 390.65625,312 C 389.75982,312.32732 388.87973,312.70205 388.125,312.9375 C 387.37027,313.17295 386.79402,313.18091 386.71875,313.15625 C 386.68112,313.14392 386.71254,313.1955 386.6875,313.15625 C 386.67619,313.13851 386.64985,312.95534 386.625,312.875 C 387.3627,311.75871 387.84652,310.73858 387.75,309.6875 C 387.63618,308.44798 386.63109,307.49334 385.65625,307.125 C 383.94072,306.47679 382.0157,306.75155 380.3125,307.3125 C 379.41848,306.77491 378.4454,306.26658 377.84375,305.8125 C 377.47428,305.53365 377.27176,305.27459 377.25,305.21875 C 377.22824,305.16291 377.16761,305.27304 377.34375,305 C 377.58386,304.62763 377.63037,304.16254 377.46875,303.75 C 376.98183,302.54134 375.95157,301.70932 374.9375,301.53125 C 373.92343,301.35318 373.07463,301.58656 372.375,301.75 C 371.67537,301.91344 371.12778,302.00185 370.90625,301.96875 C 370.75611,301.94632 370.67877,301.76877 370.59375,301.625 C 370.71224,300.7673 370.92263,299.46716 370.75,298.03125 C 370.65016,297.20086 370.43442,296.32319 369.71875,295.59375 C 369.00308,294.86431 367.81225,294.5762 366.6875,294.84375 C 366.3928,294.91339 366.12924,295.07812 365.9375,295.3125 C 364.78553,296.6714 362.51959,297.69169 361.46875,297.65625 C 360.94333,297.63853 360.91648,297.61672 360.8125,297.375 C 360.70852,297.13328 360.59776,296.28854 361.15625,294.78125 C 361.43045,294.07368 361.08127,293.27755 360.375,293 C 358.06863,292.10433 355.77427,292.84821 353.71875,293.125 C 351.66323,293.40179 350.02223,293.4444 348.40625,292 C 348.05309,291.67424 347.55581,291.55585 347.09375,291.6875 C 345.56781,292.11026 344.66691,293.14934 343.96875,293.59375 C 343.61967,293.81595 343.38274,293.86991 343.25,293.875 C 343.11726,293.88009 342.97826,293.88201 342.59375,293.5625 C 342.5835,293.55192 342.57308,293.5415 342.5625,293.53125 C 342.3834,293.39615 342.36022,293.34586 342.34375,292.90625 C 342.32728,292.46664 342.43263,291.78972 342.53125,291.03125 C 342.62987,290.27278 342.74992,289.40056 342.375,288.4375 C 342.00008,287.47444 340.94936,286.68341 339.71875,286.46875 C 339.57385,286.44546 339.42615,286.44546 339.28125,286.46875 C 338.2429,286.62108 337.49844,287.131 336.75,287.65625 C 336.00156,288.1815 335.2873,288.7512 334.65625,289.15625 C 334.0252,289.5613 333.49436,289.75055 333.34375,289.75 C 333.2758,289.74975 333.1727,289.5616 333.125,289.53125 C 333.32586,288.61384 333.49903,287.54713 333.28125,286.40625 C 333.14496,285.69227 332.82741,284.89438 332.09375,284.34375 C 331.36009,283.79312 330.34813,283.67917 329.375,283.90625 C 329.1144,283.96216 328.8756,284.09242 328.6875,284.28125 C 327.64409,285.35956 326.27696,285.61998 324.75,285.3125 C 323.22304,285.00502 321.6555,284.02921 320.78125,282.96875 C 320.71508,282.89878 320.64177,282.83594 320.5625,282.78125 C 320.003,282.34335 319.29881,282.09327 318.65625,282.09375 C 318.01369,282.09423 317.47121,282.30039 317,282.53125 C 316.05758,282.99297 315.32003,283.62175 314.75,284 C 314.46499,284.18913 314.23341,284.30985 314.125,284.34375 C 314.20519,284.37239 313.7927,283.97413 313.40625,282.625 C 313.40162,282.59958 313.37974,282.58773 313.375,282.5625 C 313.36907,282.54043 313.38091,282.55383 313.375,282.53125 C 313.05037,280.82736 312.4661,279.55355 311.5,278.75 C 310.51345,277.92944 309.11049,277.8475 308.0625,278.3125 C 306.35316,279.07096 305.23788,280.8423 304.90625,283 C 304.57475,282.20827 304.41292,280.83026 304.0625,279.75 C 303.94401,279.39233 303.6843,279.09873 303.34375,278.9375 C 302.04622,278.32579 300.57735,278.61185 299.6875,279.25 C 298.79765,279.88815 298.24469,280.67412 297.75,281.28125 C 297.25531,281.88838 296.83911,282.21626 296.71875,282.25 C 296.59839,282.28374 296.4201,282.37166 295.59375,281.59375 C 295.20814,281.23215 294.64971,281.12289 294.15625,281.3125 C 293.22612,281.66441 293.02429,281.5244 293.09375,281.5625 C 293.16321,281.6006 293.0763,281.5393 292.90625,281.0625 C 292.7362,280.5857 292.53792,279.83861 291.96875,279.09375 C 291.39958,278.34889 290.34241,277.75427 289.09375,277.71875 C 288.66102,277.69943 288.24438,277.8846 287.96875,278.21875 C 287.38506,278.94295 286.51111,279.81307 285.96875,280.0625 C 285.69757,280.18721 285.60141,280.17892 285.53125,280.15625 C 285.46109,280.13358 285.26411,280.04987 284.96875,279.53125 C 284.95004,279.48855 284.92918,279.44683 284.90625,279.40625 C 284.55844,278.90333 284.18744,277.66524 283.59375,276.40625 C 283.29691,275.77676 282.93063,275.1071 282.3125,274.5625 C 281.69437,274.0179 280.80676,273.66812 279.84375,273.65625 C 279.62851,273.64852 279.41446,273.69133 279.21875,273.78125 C 278.16156,274.31015 277.72243,275.2366 277.375,276.0625 C 277.02757,276.8884 276.78551,277.73328 276.53125,278.375 C 276.31089,278.93116 276.13672,279.14347 276.125,279.1875 C 276.1066,279.17989 276.06142,279.14032 276.03125,279.125 C 275.91086,278.70277 275.81384,277.65826 275.4375,276.46875 C 275.22941,275.81104 274.85635,274.9913 273.96875,274.5625 C 273.08115,274.1337 272.06659,274.30131 271.09375,274.75 C 270.7887,274.88807 270.54432,275.13245 270.40625,275.4375 C 269.772,276.88853 268.49834,277.67429 267.96875,277.6875 C 267.70396,277.6941 267.6138,277.66511 267.40625,277.375 C 267.1987,277.08489 266.93377,276.38564 266.9375,275.1875 C 266.93545,274.80817 266.7772,274.44645 266.5,274.1875 C 265.89418,273.61793 265.25193,273.21744 264.5,273.09375 z M 264.0625,275.8125 C 264.07638,275.81478 264.21704,275.93698 264.28125,275.96875 C 264.37061,277.15794 264.59947,278.19049 265.15625,278.96875 C 265.83848,279.92235 266.97138,280.46393 268.03125,280.4375 C 269.93015,280.39015 271.4799,278.99476 272.5,277.125 C 272.56736,277.11433 272.80923,277.05986 272.75,277.03125 C 272.62877,276.97268 272.70842,276.95226 272.8125,277.28125 C 273.02067,277.93922 272.97395,279.30996 273.65625,280.65625 C 273.73991,280.82393 273.85687,280.97279 274,281.09375 C 274.51408,281.50617 275.05519,281.83616 275.65625,281.96875 C 276.25731,282.10134 276.93557,281.98056 277.4375,281.6875 C 278.44137,281.10138 278.77205,280.21817 279.09375,279.40625 C 279.41545,278.59433 279.67757,277.7429 279.9375,277.125 C 280.10346,276.73049 280.15187,276.69216 280.25,276.5625 C 280.31671,276.59924 280.43111,276.59555 280.5,276.65625 C 280.68877,276.82256 280.91226,277.14261 281.125,277.59375 C 281.53457,278.4623 281.84044,279.72236 282.59375,280.875 C 282.59808,280.88259 282.5894,280.89869 282.59375,280.90625 C 282.61727,280.94183 282.63179,280.96464 282.65625,281 L 282.6875,281 C 283.1996,281.84287 283.85908,282.51359 284.6875,282.78125 C 285.56164,283.06368 286.43945,282.87778 287.125,282.5625 C 288.15332,282.08958 288.88246,281.36039 289.5,280.65625 C 289.55115,280.69818 289.73113,280.68441 289.78125,280.75 C 289.92167,280.93376 290.06887,281.37325 290.28125,281.96875 C 290.49363,282.56425 290.82927,283.44658 291.78125,283.96875 C 292.54364,284.38692 293.46005,284.32776 294.4375,284.0625 C 295.44649,284.77417 296.5002,285.17776 297.46875,284.90625 C 298.66723,284.57029 299.34366,283.72171 299.90625,283.03125 C 300.46884,282.34079 300.96932,281.71486 301.3125,281.46875 C 301.45212,281.36862 301.57573,281.49912 301.65625,281.46875 C 301.80233,282.18084 301.94297,283.03067 302.375,284.0625 C 302.66339,284.75128 303.05708,285.49453 303.9375,285.9375 C 304.81792,286.38047 305.9617,286.21246 306.875,285.65625 C 307.29662,285.39722 307.54708,284.93209 307.53125,284.4375 C 307.48625,282.58023 308.5953,281.07527 309.1875,280.8125 C 309.4836,280.68112 309.50699,280.67287 309.75,280.875 C 309.99301,281.07713 310.43615,281.74485 310.6875,283.125 C 310.69679,283.15661 310.70722,283.18788 310.71875,283.21875 C 311.212,285.10331 311.81128,286.36834 313.09375,286.90625 C 313.73498,287.1752 314.41082,287.13345 314.9375,286.96875 C 315.46418,286.80405 315.89482,286.53767 316.28125,286.28125 C 317.0541,285.76841 317.74665,285.23129 318.21875,285 C 318.4548,284.88435 318.59208,284.8438 318.65625,284.84375 C 318.72042,284.8437 318.7406,284.83231 318.875,284.9375 C 320.21117,286.45209 322.09347,287.57834 324.1875,288 C 326.19279,288.40379 328.42498,288.02211 330.15625,286.5625 C 330.27622,286.55695 330.45069,286.54115 330.4375,286.53125 C 330.41689,286.51578 330.50301,286.5946 330.5625,286.90625 C 330.68148,287.52955 330.51114,288.78984 330.3125,289.53125 C 330.23454,289.8586 330.279,290.20316 330.4375,290.5 C 331.04853,291.68618 332.2153,292.49585 333.34375,292.5 C 334.4722,292.50415 335.32047,292.0164 336.125,291.5 C 336.92953,290.9836 337.69608,290.39203 338.34375,289.9375 C 338.90329,289.54482 339.2929,289.35352 339.5,289.28125 C 339.58639,289.31905 339.78803,289.37463 339.8125,289.4375 C 339.85566,289.54838 339.86606,290.00395 339.78125,290.65625 C 339.69644,291.30855 339.52899,292.10563 339.5625,293 C 339.59512,293.87063 339.95989,294.97643 340.84375,295.6875 C 340.84896,295.69169 340.86975,295.68333 340.875,295.6875 C 340.89403,295.7026 340.88671,295.73526 340.90625,295.75 L 340.9375,295.71875 C 341.68476,296.31109 342.55555,296.68765 343.375,296.65625 C 344.22543,296.62366 344.9162,296.25798 345.46875,295.90625 C 346.38184,295.32503 346.95471,294.88896 347.4375,294.625 C 349.62483,296.08122 352.07,296.14751 354.09375,295.875 C 355.76641,295.64976 357.09514,295.46996 358.1875,295.5 C 357.97122,296.59119 357.91532,297.58681 358.28125,298.4375 C 358.82975,299.71262 360.16819,300.36555 361.375,300.40625 C 363.57646,300.48049 365.80968,299.26902 367.5,297.53125 C 367.57277,297.52955 367.73188,297.48153 367.75,297.5 C 367.78159,297.5322 367.96914,297.8584 368.03125,298.375 C 368.15547,299.40821 367.92035,300.94074 367.8125,301.84375 C 367.77908,302.08741 367.81145,302.33557 367.90625,302.5625 C 368.4064,303.74924 369.49508,304.53737 370.5,304.6875 C 371.50492,304.83763 372.30975,304.59875 373,304.4375 C 373.69025,304.27625 374.25983,304.21331 374.46875,304.25 C 374.56352,304.26664 374.60232,304.46013 374.65625,304.5 C 374.50784,305.09723 374.48439,305.72873 374.6875,306.25 C 375.00735,307.07085 375.57867,307.59534 376.15625,308.03125 C 377.31141,308.90307 378.6947,309.48106 379.3125,309.90625 C 379.69489,310.17834 380.18942,310.23721 380.625,310.0625 C 381.88695,309.56045 383.95667,309.44261 384.6875,309.71875 C 385.05291,309.85682 384.98751,309.80147 385,309.9375 C 385.01249,310.07353 384.9029,310.72737 384.09375,311.8125 C 383.88849,312.08008 383.78843,312.41362 383.8125,312.75 C 383.86496,313.44611 384.02547,314.07707 384.375,314.625 C 384.72453,315.17293 385.28026,315.59666 385.84375,315.78125 C 386.97072,316.15043 387.98208,315.86056 388.9375,315.5625 C 389.89292,315.26444 390.83448,314.85114 391.625,314.5625 C 392.31674,314.30992 392.7896,314.26904 392.96875,314.25 C 393.00764,314.2835 393.17942,314.32597 393.1875,314.40625 C 393.20291,314.55941 393.08609,315.07166 392.84375,315.71875 C 392.60141,316.36584 392.27466,317.13649 392.125,318.03125 C 391.98665,318.85839 392.19136,319.94435 392.90625,320.75 L 392.84375,320.78125 C 392.89427,320.84912 392.97799,320.87326 393.03125,320.9375 C 393.61599,321.64274 394.34575,322.16535 395.125,322.3125 C 395.97524,322.47305 396.73041,322.26639 397.34375,322.03125 C 398.33335,321.65186 398.92812,321.34585 399.40625,321.1875 C 400.19105,322.09591 401.09114,322.80624 402.0625,323.1875 C 403.33761,323.68798 404.62299,323.82624 405.8125,323.90625 C 407.00201,323.98626 408.10265,324.01032 408.9375,324.15625 C 409.3294,324.22475 409.4596,324.38876 409.71875,324.5 C 409.27262,325.34834 409.00423,326.20723 409.0625,327.03125 C 409.15203,328.2972 409.96328,329.34731 410.96875,329.875 C 412.88876,330.88266 415.43912,330.49657 417.40625,328.78125 C 418.07953,328.41702 418.22357,328.53239 418.28125,328.5625 C 418.33893,328.59261 418.52025,328.74307 418.625,329.1875 C 418.8345,330.07636 418.42238,331.60554 417.96875,332 C 417.6551,332.27491 417.48276,332.67703 417.5,333.09375 C 417.5336,334.42654 418.29511,335.60438 419.25,336.0625 C 420.20489,336.52062 421.11454,336.49582 421.875,336.53125 C 422.63546,336.56668 423.26241,336.67259 423.5,336.78125 C 423.58553,336.82037 423.58263,336.97026 423.625,337 C 423.28471,337.45423 423.00698,337.94272 422.9375,338.46875 C 422.82346,339.33213 423.05952,340.11053 423.40625,340.78125 C 424.05865,342.04326 425.10513,343.00994 426.09375,343.75 C 426.68523,344.37723 426.57821,344.4297 426.53125,344.59375 C 426.48429,344.7578 426.18446,345.18676 425.65625,345.71875 C 425.12804,346.25074 424.41876,346.84976 423.9375,347.78125 C 423.45624,348.71274 423.41046,350.1283 424.125,351.28125 C 424.22129,351.4406 424.34885,351.57879 424.5,351.6875 C 425.5484,352.43124 426.57095,352.73492 426.875,352.96875 C 427.02703,353.08567 426.99207,353.08486 427,353.125 C 427.00793,353.16514 427.04173,353.3947 426.8125,353.9375 C 425.99098,355.16546 425.67355,356.67842 426.03125,358.09375 C 426.35642,359.38038 427.40246,360.446 428.78125,361.09375 C 428.86829,361.23273 428.89193,361.31974 428.875,361.40625 C 428.85448,361.51111 428.76034,361.67598 428.5625,361.84375 C 428.16681,362.17928 427.51116,362.3311 427,362.0625 C 426.68149,361.89844 426.31162,361.86481 425.96875,361.96875 C 424.66056,362.3608 423.71402,363.47929 423.5,364.5625 C 423.28598,365.64571 423.50083,366.602 423.6875,367.5 C 423.87417,368.398 424.06035,369.23872 424.0625,369.8125 C 424.06444,370.33113 423.97596,370.48533 423.75,370.6875 C 423.09413,370.85674 422.15639,370.99184 421.125,371.46875 C 420.52928,371.74421 419.90511,372.16837 419.4375,372.8125 C 418.96989,373.45663 418.72803,374.31422 418.8125,375.21875 C 418.8458,375.61798 419.05111,375.98298 419.375,376.21875 C 419.76561,376.5063 419.75391,376.75911 419.71875,376.90625 C 419.69445,377.00792 419.53623,377.06943 419.375,377.125 C 418.22896,376.51027 416.9283,376.13276 415.59375,376.40625 C 414.79017,376.57092 413.96383,377.00805 413.375,377.71875 C 412.78617,378.42945 412.46499,379.36537 412.4375,380.4375 C 412.4449,380.49014 412.45533,380.54231 412.46875,380.59375 C 412.52206,381.18571 412.39268,381.49432 412.21875,381.71875 C 412.04482,381.94318 411.74523,382.12261 411.34375,382.21875 C 410.54079,382.41103 409.39569,382.13667 408.78125,381.5 C 408.58879,381.29434 408.33796,381.15256 408.0625,381.09375 C 407.09413,380.88056 406.12234,381.03238 405.375,381.5 C 404.62766,381.96762 404.17748,382.6724 403.90625,383.375 C 403.47127,384.5018 403.46991,385.63559 403.59375,386.6875 C 403.49822,386.79469 403.40308,386.99256 403.21875,386.96875 C 402.92118,386.93032 402.19814,386.57212 401.40625,386.0625 C 400.61436,385.55288 399.73928,384.92145 398.71875,384.46875 C 397.69822,384.01605 396.35596,383.76153 395.125,384.40625 C 395.02391,384.45698 394.92945,384.51995 394.84375,384.59375 C 393.71491,385.63078 393.41811,386.88654 393.125,387.3125 C 392.97845,387.52548 393.02209,387.44787 393.09375,387.4375 C 393.15238,387.42902 392.88696,387.35527 392.53125,387.15625 C 391.92334,386.00867 391.01909,385.05824 389.8125,384.59375 C 388.38426,384.04394 386.48869,384.25114 385.21875,385.59375 C 385.17335,385.64274 385.13158,385.69496 385.09375,385.75 C 384.80957,386.1416 384.27886,386.13151 383.90625,385.9375 C 383.71995,385.84049 383.66817,385.73025 383.65625,385.6875 C 383.64433,385.64475 383.57968,385.56423 383.84375,385.1875 C 383.92795,385.0632 383.99129,384.92597 384.03125,384.78125 C 384.47318,383.28615 384.48097,381.91252 383.5625,380.96875 C 382.64403,380.02498 381.37687,380.09968 380.375,380.40625 C 379.37313,380.71282 378.41053,381.29365 377.59375,382.0625 C 377.18536,382.44692 376.80843,382.8897 376.5,383.375 C 376.40336,383.09306 376.28434,382.74558 376.25,382.125 C 376.20708,381.34927 376.22339,380.39967 376.125,379.46875 C 376.03305,378.59878 375.8102,377.67514 375.125,376.875 L 375.15625,376.84375 C 375.142,376.82463 375.10846,376.83116 375.09375,376.8125 C 375.06062,376.77548 375.06671,376.72379 375.03125,376.6875 L 375,376.71875 C 374.298,375.91539 373.17407,375.53341 372.34375,375.65625 C 371.45985,375.78702 370.84367,376.15339 370.3125,376.40625 C 369.81943,376.64097 369.50226,376.70571 369.46875,376.71875 C 369.61361,375.86055 369.60516,375.02615 369.3125,374.3125 C 368.9439,373.41365 368.28026,372.75471 367.59375,372.25 C 366.22072,371.24059 364.63081,370.6772 363.4375,370 C 363.1534,369.83844 362.82114,369.78306 362.5,369.84375 C 360.96581,370.12658 360.00168,371.06824 359.21875,371.4375 C 358.82729,371.62213 358.56367,371.63049 358.53125,371.625 C 359.07731,370.21701 359.11335,368.70334 358.53125,367.40625 C 358.16224,366.584 357.50056,365.72476 356.375,365.53125 C 355.24944,365.33774 354.17208,365.9451 353.34375,366.90625 C 353.2567,366.99978 353.18308,367.10495 353.125,367.21875 C 352.34435,368.86652 351.72346,369.31005 351.6875,369.34375 C 351.61764,369.28893 351.47766,369.20186 351.3125,368.9375 C 350.57091,367.75052 349.92078,364.69703 349.9375,363.21875 C 349.93954,362.91415 349.84064,362.61746 349.65625,362.375 C 348.98817,361.48243 347.80333,361.11936 346.9375,361.21875 C 346.07167,361.31814 345.43829,361.64319 344.90625,361.875 C 344.41031,362.09107 344.07126,362.14521 344,362.15625 C 343.98591,361.34065 343.99368,360.58777 344.03125,360.03125 C 344.05307,359.70798 344.08184,359.43292 344.09375,359.1875 C 344.10566,358.94208 344.24432,358.87095 344,358.21875 C 343.93892,358.0557 343.81756,357.80105 343.5,357.5625 C 343.18244,357.32395 342.66437,357.23901 342.34375,357.3125 C 341.7025,357.45947 341.61322,357.71465 341.5,357.84375 C 341.27356,358.10196 341.17419,358.27136 341,358.5625 C 340.72848,359.01631 340.26064,359.85364 339.75,360.75 C 339.73435,360.72869 339.66099,360.7848 339.625,360.75 C 339.4715,360.6016 339.17593,360.06938 338.9375,359.34375 C 338.69907,358.61812 338.50342,357.73507 338.21875,356.875 C 337.93408,356.01493 337.60793,355.13737 336.78125,354.4375 C 336.11774,353.82939 335.26806,353.51571 334.46875,353.59375 C 333.66944,353.67179 333.08022,354.03917 332.625,354.375 C 331.72576,355.03839 331.08958,355.57527 331.03125,355.59375 C 331.03052,355.59398 331.00054,355.59367 331,355.59375 C 331.02068,355.59383 330.94977,355.6167 330.9375,355.59375 C 330.89967,355.52297 330.80521,355.08643 330.75,354.53125 C 330.69479,353.97607 330.81708,353.22231 330,352.40625 C 329.59146,351.99822 328.91279,351.79902 328.375,351.84375 C 328.15172,351.86232 327.9541,351.96922 327.75,352.03125 C 326.90199,351.38462 325.91561,350.72604 324.6875,350.4375 C 323.92198,350.25764 323.02965,350.21808 322.1875,350.5625 C 321.41986,350.87645 320.76276,351.5333 320.28125,352.34375 C 319.79194,352.96502 319.46832,353.02373 319.375,353.03125 C 319.28168,353.03877 319.20675,353.04431 319,352.8125 C 318.58651,352.34889 318.22737,351.02665 318.5625,350.09375 C 318.75603,349.56411 318.6075,348.97 318.1875,348.59375 C 317.68122,348.14403 317.15478,347.8336 316.53125,347.6875 C 315.90772,347.5414 315.218,347.64264 314.71875,347.9375 C 313.72025,348.52723 313.34912,349.40682 312.96875,350.1875 C 312.58838,350.96818 312.24426,351.73055 311.9375,352.1875 C 311.85298,352.3134 311.86466,352.24723 311.8125,352.3125 C 311.57163,352.0332 311.36104,351.83847 311.0625,351.28125 C 310.61171,350.43988 310.1544,349.39353 309.5625,348.4375 C 308.9706,347.48147 308.18644,346.5013 306.875,346.15625 C 305.68158,345.84225 304.39472,346.34879 303.15625,347.3125 C 303.14562,347.31702 303.13568,347.30798 303.125,347.3125 C 301.82923,347.86091 300.16589,348.42355 299.65625,348.375 C 299.39933,348.35052 299.55726,348.4637 299.5,348.3125 C 299.44274,348.1613 299.3594,347.46363 299.6875,346.1875 C 299.77353,345.85034 299.72887,345.49311 299.5625,345.1875 C 299.2264,344.56743 298.81553,344.0532 298.28125,343.6875 C 297.74697,343.3218 297.09304,343.14313 296.5,343.1875 C 295.31393,343.27624 294.50395,343.92531 293.75,344.5625 C 292.99605,345.19969 292.29329,345.92548 291.6875,346.46875 C 291.14552,346.9548 290.73705,347.15461 290.59375,347.21875 C 290.45671,347.20721 290.3096,347.24747 290.25,347.125 C 290.16232,346.94482 290.08329,346.33816 290.0625,345.59375 C 290.04171,344.84934 290.06872,343.96259 289.8125,343.03125 C 289.55628,342.09991 288.73558,341.04267 287.53125,340.71875 C 287.23078,340.6366 286.91135,340.65863 286.625,340.78125 C 284.66367,341.67945 282.98882,342.71129 281.40625,343.125 C 279.82368,343.53871 278.34415,343.50601 276.15625,342.21875 C 275.70143,341.94572 275.1303,341.95787 274.6875,342.25 C 273.88066,342.78415 272.27543,343.82848 271.25,344.15625 C 270.85648,344.28203 270.83294,344.25232 270.84375,344.28125 C 270.82759,344.16192 270.79811,344.00066 270.84375,343.65625 C 270.90691,343.09016 270.61543,342.54352 270.11019,342.28051 C 269.60494,342.01751 268.98997,342.0923 268.5625,342.46875 C 268.36194,342.65198 268.30573,342.62961 268.25,342.65625 C 268.18656,342.57347 267.95866,342.3189 267.6875,341.84375 C 267.5305,341.56863 267.36082,341.28349 267.125,340.96875 C 266.88918,340.65401 266.58301,340.22991 265.875,340.0625 C 265.16699,339.89509 264.39981,340.28183 264,340.6875 C 263.60019,341.09317 263.31146,341.55109 263,342.1875 C 262.97471,342.24842 262.95382,342.31109 262.9375,342.375 C 262.45558,343.90793 261.91401,344.46981 261.6875,344.59375 C 261.46099,344.71769 261.26117,344.73046 260.65625,344.40625 C 259.44641,343.75782 257.62476,341.75508 255.96875,340.25 C 255.75125,340.05566 255.47772,339.9353 255.1875,339.90625 C 254.02232,339.80081 253.0303,340.41736 252.4375,341.03125 C 251.8447,341.64514 251.45327,342.28753 251.125,342.71875 C 250.79673,343.14997 250.60124,343.21443 250.78125,343.1875 C 250.96126,343.16057 250.86006,343.30706 250.28125,342.625 L 250.25,342.65625 C 249.7708,341.6852 248.94825,340.9587 248,340.625 C 246.87556,340.2293 245.6102,340.16507 244.375,340.375 C 243.1398,340.58493 241.89823,341.06514 240.90625,341.9375 C 240.09681,342.64933 239.58763,343.7209 239.375,344.90625 C 239.24907,345.01144 239.13048,345.11487 239.0625,345.15625 C 239.08314,345.12765 239.0027,345.07465 238.78125,344.625 C 238.49799,344.04987 238.17554,343.26159 237.625,342.5 C 237.07446,341.73841 235.98251,340.94351 234.71875,341.09375 C 234.567,341.1109 234.41915,341.15314 234.28125,341.21875 C 232.99703,341.83493 232.57673,343.07061 232.28125,344.125 C 231.98577,345.17939 231.84247,346.23711 231.65625,346.96875 C 231.6115,347.14456 231.57496,347.19055 231.53125,347.3125 C 231.2892,347.13839 230.94597,346.85337 230.5,346.375 C 229.82525,344.72831 229.09315,343.58457 228.03125,342.96875 C 226.87674,342.29923 225.55939,342.51849 224.625,342.96875 C 223.69061,343.41901 222.90554,344.04839 222.21875,344.53125 C 221.82086,344.81099 221.60648,344.86027 221.3125,345 C 221.00707,344.53299 220.69519,343.92725 220.15625,342.9375 C 219.80859,342.29904 219.3329,341.60566 218.53125,341.125 C 217.7296,340.64434 216.64483,340.54704 215.59375,340.875 C 215.35206,340.95046 215.13583,341.09101 214.96875,341.28125 C 214.50142,341.81627 214.41665,341.72948 214.34375,341.71875 C 214.27085,341.70802 213.93602,341.56815 213.53125,341.125 C 212.72171,340.2387 211.92641,338.63784 210.9375,337.53125 C 210.77042,337.34101 210.55419,337.20046 210.3125,337.125 C 208.93366,336.71052 206.86081,335.74992 206,334.875 C 205.5696,334.43754 205.47463,334.18422 205.5,334 C 205.52537,333.81578 205.74574,333.34127 206.78125,332.65625 C 207.13684,332.42667 207.36727,332.04647 207.40625,331.625 C 207.47225,330.88254 207.36704,330.14363 207.03125,329.53125 C 206.69546,328.91887 206.12822,328.49588 205.59375,328.25 C 204.5248,327.75825 203.48803,327.7635 202.53125,327.71875 C 201.57447,327.674 200.69378,327.5943 200.3125,327.4375 C 200.10122,327.35061 200.13871,327.15731 200.09375,327.0625 C 201.1386,325.69369 201.32858,323.93017 200.6875,322.53125 C 200.01733,321.06886 198.47833,319.98391 196.65625,319.90625 C 196.56228,319.79628 196.37866,319.63405 196.375,319.59375 C 196.36883,319.52583 196.39529,319.33653 196.625,319.03125 C 197.08442,318.4207 198.29299,317.6772 198.9375,317.5 C 199.29556,317.40362 199.5997,317.16707 199.78125,316.84375 C 200.09801,316.253 200.30983,315.66904 200.34375,315.0625 C 200.37767,314.45596 200.16395,313.82379 199.8125,313.375 C 199.1096,312.47743 198.2273,312.27213 197.5,312.0625 C 196.78482,311.85636 196.14374,311.66115 195.84375,311.5 C 197.27505,310.00043 198.59804,308.47991 199.28125,306.65625 C 199.88757,305.03783 199.57811,303.18761 198.6875,301.34375 C 198.96626,301.50045 199.19549,301.64292 199.59375,301.78125 C 200.24089,302.00602 201.34871,302.07524 202.125,301.4375 C 202.52964,301.10534 202.71124,300.57266 202.59375,300.0625 C 201.89446,296.91353 202.81708,295.76878 204.34375,294.125 C 205.83988,292.51409 208.08136,290.62518 208.8125,287.28125 C 209.12889,286.37903 209.36782,286.50998 209.3125,286.5 C 209.25718,286.49002 209.57925,286.51501 209.59375,287.4375 C 209.60439,288.11684 210.10838,288.68714 210.78125,288.78125 C 212.00108,288.95732 213.26116,288.5258 213.84375,287.65625 C 214.42634,286.7867 214.4501,285.91163 214.5,285.15625 C 214.5499,284.40087 214.58238,283.70324 214.6875,283.28125 C 214.74506,283.05019 214.82505,283.06845 214.875,283 C 217.55425,283.712 219.94446,282.70437 221.75,281.625 C 222.75977,281.02135 223.66513,280.39334 224.4375,280.03125 C 224.86219,279.83215 225.14123,279.8969 225.46875,279.84375 C 225.6916,281.15511 226.05433,282.25292 226.875,282.9375 C 227.43285,283.40284 228.15126,283.61513 228.8125,283.59375 C 229.47374,283.57237 230.08471,283.37718 230.625,283.09375 C 232.51155,282.10409 234.01492,280.20977 235.0625,278.4375 C 235.07294,278.45524 235.16665,278.41289 235.1875,278.4375 C 235.28763,278.55567 235.46215,279.01574 235.625,279.6875 C 235.78785,280.35926 235.94224,281.19409 236.34375,282.03125 C 236.74526,282.86841 237.62134,283.76412 238.8125,283.96875 C 239.12356,284.02192 239.44345,283.96677 239.71875,283.8125 C 241.69782,282.66848 243.15702,281.18725 244.625,280.34375 C 246.09298,279.50025 247.44901,279.10451 249.9375,279.96875 C 250.53683,280.18945 251.20928,279.96961 251.5625,279.4375 C 252.51573,277.97587 254.07121,276.93406 254.71875,276.875 C 255.04252,276.84547 255.08499,276.85281 255.28125,277.125 C 255.47751,277.39719 255.75165,278.1446 255.75,279.5 C 255.74938,279.96631 255.98453,280.40134 256.375,280.65625 C 257.05141,281.08919 257.81862,281.32284 258.5625,281.25 C 259.30638,281.17716 259.95706,280.80927 260.4375,280.40625 C 261.39838,279.60021 261.96326,278.56028 262.53125,277.65625 C 263.09924,276.75222 263.6908,276.03315 263.9375,275.875 C 264.06085,275.79593 264.02757,275.80675 264.0625,275.8125 z "
       id="path1874" />
    <path
       style="opacity:1;color:black;fill:black;fill-opacity:1;fill-rule:evenodd;stroke:none;stroke-width:11.41900158;stroke-linecap:round;stroke-linejoin:round;marker:none;stroke-miterlimit:4;stroke-dasharray:none;stroke-dashoffset:0;stroke-opacity:1;visibility:visible;display:block"
       d="M 188.78608,125.41616 C 187.60603,125.36996 186.57369,126.06097 186.002,126.81197 C 185.43032,127.56296 185.10997,128.37989 184.79482,129.1358 C 184.47967,129.89171 184.1803,130.58943 183.88943,131.01448 C 183.59856,131.43953 183.44285,131.54318 183.18775,131.58035 C 182.88473,131.6245 183.08076,131.66929 182.95386,131.5049 C 182.82697,131.34051 182.6234,130.85042 182.41817,130.25245 C 182.21295,129.65447 182.02747,128.94706 181.44488,128.25305 C 181.15359,127.90604 180.71377,127.56736 180.16979,127.42311 C 179.62581,127.27886 179.05242,127.33807 178.53255,127.51365 C 177.69617,127.79611 177.03206,128.21109 176.58596,128.73592 C 176.13986,129.26075 175.95673,129.81475 175.83147,130.18454 C 175.58096,130.92413 175.73312,131.00228 174.80536,131.46718 C 173.90241,131.91964 173.22893,131.82904 172.12692,131.73125 C 171.02492,131.63345 169.45112,131.59131 167.9395,132.62909 C 167.09133,133.21139 166.56955,134.10974 166.43806,134.92274 C 166.30658,135.73575 166.45017,136.41604 166.54369,136.96741 C 166.63721,137.51878 166.68636,137.94319 166.65687,138.18214 C 166.64048,138.3149 166.62103,138.3993 166.56633,138.48394 C 166.55166,138.45553 166.54307,138.44655 166.5286,138.41603 C 166.3348,138.00727 166.20714,137.40074 165.37423,136.86178 C 164.95778,136.59231 164.28361,136.47801 163.76717,136.62789 C 163.25072,136.77777 162.88197,137.06319 162.5298,137.40502 C 161.21541,138.6808 160.94497,140.22978 160.85483,141.32837 C 160.7647,142.42696 160.75943,143.11797 160.17579,143.97663 C 159.85373,144.45046 159.68205,144.54419 159.68537,144.5425 C 159.6887,144.54081 159.78514,144.53238 159.53447,144.53495 C 159.2838,144.53753 158.64528,144.57468 158.0934,144.93483 C 157.54152,145.29499 157.16363,145.81289 156.78058,146.5419 C 155.9314,148.15807 156.27376,149.72978 156.59951,150.70669 C 156.90314,151.61729 157.10768,152.10351 156.9013,152.93243 C 156.76789,152.88991 156.70782,152.88224 156.41088,152.75136 C 155.93888,152.5433 155.39314,152.19468 154.47184,152.23076 C 154.01119,152.2488 153.42559,152.46194 153.03076,152.85699 C 152.63594,153.25203 152.43915,153.73008 152.32154,154.23016 C 152.1093,155.13267 152.1827,156.01989 152.52526,156.69734 C 152.86782,157.37479 153.35202,157.76429 153.69472,158.04788 C 154.03742,158.33148 154.25422,158.52376 154.36621,158.6892 C 154.47821,158.85464 154.55841,158.99909 154.54729,159.46632 C 154.52754,160.2962 154.05224,160.70475 153.13639,161.54117 C 152.22055,162.37759 150.87379,163.67477 150.9031,165.69842 C 150.91877,166.78022 151.59441,167.83886 152.39699,168.24105 C 153.19957,168.64324 153.92253,168.64263 154.52466,168.6862 C 155.12678,168.72977 155.6143,168.79894 155.79975,168.87482 C 155.98519,168.95071 155.92144,168.81515 155.98082,169.1238 C 156.04421,169.45328 156.02166,169.40335 155.86765,169.58404 C 155.71364,169.76474 155.31653,170.04662 154.81136,170.36871 C 154.30619,170.69081 153.67918,171.0499 153.15903,171.74943 C 152.63887,172.44896 152.4322,173.59683 152.78178,174.60895 C 153.10088,175.53281 153.71808,176.2673 154.43412,176.62344 C 155.15015,176.97958 155.80344,176.99727 156.28262,177.02332 C 156.76179,177.04937 157.08365,177.08163 157.24837,177.14404 C 157.41308,177.20645 157.49578,177.22852 157.69352,177.60428 C 157.91862,178.03204 157.88846,178.13608 157.87459,178.21542 C 157.86073,178.29475 157.78937,178.44125 157.59543,178.76619 C 157.4015,179.09114 157.07166,179.6177 157.02956,180.37326 C 156.98747,181.12881 157.29364,181.91797 157.83687,182.64428 C 158.47733,183.50057 159.46575,183.95876 160.31914,184.04008 C 161.17254,184.1214 161.90552,183.95578 162.54489,183.82883 C 163.18426,183.70187 163.73236,183.60848 164.10669,183.62511 C 164.48101,183.64175 164.644,183.68734 164.90645,183.94954 C 165.17036,184.21322 165.05741,184.02449 165.03471,184.11553 C 165.01201,184.20657 164.80751,184.56918 164.48393,185.02092 C 164.16035,185.47266 163.70718,186.0066 163.51064,186.86942 C 163.3141,187.73225 163.69239,188.8932 164.49148,189.60068 C 165.74009,190.70615 166.92858,191.10203 167.84142,191.28319 C 168.75425,191.46436 169.35584,191.50692 170.44441,192.09804 C 171.4632,192.65128 171.38897,192.79618 171.68932,193.46367 C 171.98966,194.13116 172.7161,195.30702 174.27722,195.99121 C 175.07938,196.34278 175.84967,196.50191 176.58596,196.29301 C 177.32225,196.08411 177.74417,195.5826 177.95913,195.33481 C 178.1741,195.08701 178.22379,195.05085 178.24584,195.04056 C 178.26789,195.03027 178.36843,194.96474 178.87961,195.07074 C 179.31947,195.16195 179.42982,195.26681 179.58129,195.44798 C 179.73276,195.62915 179.88865,195.9489 180.0868,196.41373 C 180.28495,196.87856 180.52724,197.48789 181.03746,198.07361 C 181.54767,198.65933 182.36325,199.14119 183.33111,199.29588 C 184.34789,199.45839 185.44444,199.08745 186.00955,198.43576 C 186.57466,197.78407 186.72111,197.12679 186.87721,196.63253 C 187.03332,196.13827 187.18162,195.79977 187.24691,195.7196 C 187.3122,195.63943 187.1819,195.63811 187.57889,195.65924 C 188.34609,195.70008 188.95358,196.36425 189.88009,197.46247 C 190.34334,198.01158 190.85374,198.62561 191.5626,199.13744 C 192.27146,199.64927 193.25288,200.0257 194.32404,199.92966 C 194.92483,199.87578 195.54289,199.63407 195.97637,199.20534 C 196.40985,198.77662 196.61722,198.24795 196.71577,197.77936 C 196.91287,196.84217 196.7874,195.99237 196.70823,195.20654 C 196.62905,194.42072 196.58849,193.70186 196.64787,193.35804 C 196.67756,193.18613 196.71785,193.13457 196.70823,193.14678 C 196.69861,193.159 196.6351,193.17799 196.73086,193.15433 C 197.03815,193.07842 196.84124,193.05972 196.9723,193.19205 C 197.10336,193.32439 197.35648,193.76056 197.62116,194.3087 C 197.88585,194.85684 198.15114,195.52784 198.81326,196.13457 C 199.47537,196.7413 200.7488,196.97941 201.74822,196.55708 C 202.62136,196.18812 203.28766,195.59126 203.65709,194.93493 C 204.02651,194.27859 204.1166,193.66415 204.19277,193.20714 C 204.26894,192.75014 204.33087,192.44518 204.42667,192.24894 C 204.52246,192.0527 204.61805,191.89799 205.0378,191.66798 C 205.50102,191.41416 205.68031,191.41888 205.79229,191.42655 C 205.90428,191.43422 206.03859,191.47877 206.36571,191.62271 C 206.69282,191.76666 207.242,192.01789 207.95768,191.98487 C 208.67337,191.95185 209.38782,191.62828 210.08535,191.08703 C 210.83349,190.5065 211.36272,189.67903 211.38307,188.84619 C 211.40342,188.01334 211.06171,187.46352 210.87002,187.09577 C 210.67832,186.72802 210.60907,186.52531 210.60594,186.48463 C 210.60282,186.44396 210.53388,186.45206 210.83229,186.12248 C 211.35765,185.54225 212.26099,185.43772 213.66163,185.33026 C 215.06227,185.22281 217.02148,185.05498 218.26402,183.37613 C 218.91799,182.49253 219.00492,181.2589 218.64881,180.44116 C 218.29271,179.62343 217.7477,179.11904 217.31337,178.66811 C 216.87903,178.21718 216.54523,177.8228 216.4457,177.61937 C 216.34618,177.41593 216.31513,177.53652 216.47588,177.25721 C 216.93328,176.46246 217.29857,176.4888 218.30929,176.26128 C 218.81465,176.14753 219.45958,176.00631 220.11253,175.58224 C 220.76547,175.15818 221.32746,174.42081 221.61396,173.49985 C 221.88655,172.6236 221.90693,171.7802 221.69696,171.08548 C 221.48698,170.39076 221.11302,169.90902 220.84438,169.55386 C 220.3071,168.84356 220.07979,168.77973 220.2257,167.76572 C 220.28895,167.32617 220.34059,167.34719 220.42941,167.28285 C 220.51823,167.2185 220.79143,167.11103 221.24426,166.99614 C 221.6971,166.88125 222.32889,166.75984 222.97959,166.29446 C 223.63029,165.82908 224.13802,164.96426 224.25468,163.98572 C 224.3621,163.08471 224.2163,162.14907 223.59827,161.54117 C 222.98025,160.93327 222.32682,160.89067 221.96857,160.82441 C 221.61032,160.75814 221.48894,160.69489 221.50079,160.70369 C 221.51263,160.71249 221.45602,160.76969 221.39516,160.29626 C 221.32968,159.78684 221.39294,159.63283 221.45552,159.51159 C 221.5181,159.39035 221.65181,159.24508 221.93839,158.9759 C 222.22497,158.70672 222.68076,158.30537 222.97205,157.63291 C 223.26333,156.96045 223.29744,156.11608 223.08522,155.22609 C 222.64794,153.39229 221.27331,152.4485 220.33887,151.90633 C 219.40444,151.36416 218.90063,151.13641 218.53564,150.20118 C 218.3929,149.83544 218.43087,149.91302 218.50546,149.78621 C 218.58005,149.6594 218.86609,149.38007 219.28259,149.03926 C 219.69908,148.69846 220.25782,148.29895 220.67085,147.55292 C 221.08388,146.80689 221.11718,145.67568 220.6633,144.73867 C 220.21746,143.81824 219.38634,143.15874 218.58091,142.95052 C 217.77548,142.74231 217.10924,142.85168 216.57396,142.9128 C 216.03869,142.97391 215.6312,142.99286 215.41959,142.95052 C 215.20799,142.90819 215.14578,142.91473 214.92163,142.57328 C 214.56056,142.02325 214.43705,141.72522 214.41612,141.66034 C 214.39519,141.59547 214.4113,141.84062 214.42367,141.64525 C 214.43604,141.44989 214.35622,140.81428 214.12942,140.41544 C 213.90261,140.01659 213.60941,139.66473 213.10331,139.11017 C 212.48847,138.43645 211.7322,137.96331 210.91529,137.94825 C 210.09837,137.93319 209.56311,138.30384 209.24786,138.49148 C 208.93261,138.67913 208.80445,138.72267 208.78008,138.72538 C 208.75571,138.72808 208.69985,138.77368 208.2972,138.48394 C 207.96775,138.24687 207.9797,138.19826 207.95014,137.98598 C 207.92057,137.77369 207.96413,137.36274 208.06331,136.82406 C 208.16249,136.28538 208.31845,135.61951 208.19157,134.80202 C 208.0647,133.98454 207.51107,133.07502 206.63732,132.53101 C 205.26956,131.67941 204.09541,131.53963 203.33265,131.56526 C 202.5699,131.59089 202.25962,131.68431 201.11445,131.25592 C 200.95156,131.19498 200.91959,131.169 200.85793,131.1352 C 200.91383,130.84118 201.04663,130.16428 200.6014,129.47532 C 200.13298,128.75047 199.41307,128.49778 198.56427,128.31341 C 197.62311,128.10897 196.70685,128.23308 196.02919,128.60011 C 195.35152,128.96714 194.95356,129.46561 194.65601,129.81484 C 194.35846,130.16407 194.15659,130.37066 194.0147,130.45616 C 193.8728,130.54166 193.78395,130.59725 193.33565,130.53161 C 193.01262,130.48431 192.98042,130.44633 192.80751,130.18454 C 192.6346,129.92276 192.44919,129.41478 192.24919,128.80382 C 192.04919,128.19287 191.84377,127.46968 191.33625,126.7667 C 190.82874,126.06371 189.8689,125.45856 188.78608,125.41616 z M 188.6729,128.17005 C 189.00459,128.18304 188.95024,128.18022 189.09542,128.38131 C 189.24059,128.5824 189.43436,129.06293 189.6311,129.66394 C 189.82785,130.26496 190.03253,130.98378 190.50631,131.70107 C 190.98009,132.41835 191.85628,133.10479 192.93577,133.26286 C 193.89,133.4026 194.79267,133.20818 195.44068,132.81771 C 196.0887,132.42725 196.46599,131.94043 196.7535,131.60298 C 197.041,131.26554 197.23172,131.08175 197.342,131.02203 C 197.45228,130.9623 197.52592,130.90758 197.98332,131.00694 C 198.0604,131.02368 198.0496,131.02862 198.10403,131.04466 C 198.05784,131.37402 198.02324,131.81597 198.27757,132.34993 C 198.62195,133.07293 199.3055,133.52084 200.1487,133.83628 C 201.69045,134.41303 202.82738,134.33942 203.43074,134.31915 C 204.03409,134.29888 204.15621,134.23178 205.18116,134.86993 C 205.50377,135.07079 205.44239,135.06041 205.46786,135.22454 C 205.49334,135.38867 205.45396,135.78694 205.35469,136.3261 C 205.25542,136.86526 205.10449,137.54948 205.21888,138.37077 C 205.33327,139.19205 205.83248,140.11305 206.68259,140.72478 C 207.45951,141.28383 208.32234,141.54862 209.08187,141.46418 C 209.84141,141.37974 210.3592,141.03889 210.65876,140.86058 C 210.76244,140.79887 210.80096,140.78471 210.84738,140.7625 C 210.89008,140.79793 210.93695,140.8246 211.06618,140.96621 C 211.47955,141.41917 211.63187,141.64398 211.67732,141.71316 C 211.68004,141.9187 211.69148,142.20602 211.79049,142.51292 C 211.93612,142.96428 212.18602,143.42051 212.62043,144.08226 C 213.19177,144.95258 214.07326,145.49092 214.87636,145.6516 C 215.67946,145.81228 216.35958,145.7114 216.88331,145.6516 C 217.40704,145.5918 217.77139,145.5821 217.89432,145.61388 C 218.01726,145.64566 218.00408,145.58054 218.18103,145.94585 C 218.34995,146.29458 218.29935,146.14003 218.25648,146.21747 C 218.21361,146.2949 217.94704,146.56457 217.53217,146.90405 C 217.11729,147.24353 216.55785,147.65347 216.12882,148.38286 C 215.69978,149.11224 215.57823,150.21164 215.96283,151.19711 C 216.6525,152.9643 218.0651,153.77674 218.95061,154.29052 C 219.83612,154.8043 220.18264,154.92744 220.40678,155.8674 C 220.52526,156.36429 220.47136,156.4769 220.4445,156.5389 C 220.41764,156.6009 220.3244,156.71325 220.05217,156.96896 C 219.77993,157.22467 219.3397,157.61469 219.01097,158.25159 C 218.68224,158.88849 218.53748,159.71853 218.65636,160.64333 C 218.77987,161.60413 219.22153,162.45038 219.856,162.92189 C 220.49047,163.3934 221.11848,163.4679 221.47061,163.53303 C 221.50667,163.5397 221.50182,163.54145 221.53097,163.54812 C 221.52723,163.59584 221.52561,163.57212 221.51588,163.65375 C 221.4669,164.0646 221.44299,164.00323 221.37253,164.05363 C 221.30206,164.10402 221.02546,164.20847 220.56522,164.32524 C 220.10498,164.44201 219.4598,164.57685 218.80726,165.04955 C 218.15471,165.52226 217.64478,166.38099 217.50199,167.37339 C 217.23581,169.22326 218.1531,170.55838 218.64881,171.21374 C 218.89667,171.54142 219.01156,171.73741 219.05624,171.88524 C 219.10092,172.03307 219.13079,172.19526 218.98079,172.67745 C 218.84469,173.11494 218.75546,173.17974 218.61109,173.2735 C 218.46672,173.36726 218.17149,173.4629 217.7057,173.56775 C 216.77413,173.77745 215.0591,174.18249 214.08415,175.87649 C 213.52872,176.84156 213.5845,178.04413 213.97097,178.8341 C 214.35744,179.62407 214.90052,180.13205 215.32906,180.57697 C 215.75759,181.02189 216.06292,181.40874 216.12127,181.54272 C 216.17962,181.6767 216.25112,181.45395 216.04582,181.73134 C 215.56983,182.37447 214.81333,182.47935 213.45037,182.58392 C 212.08742,182.68848 210.17086,182.73874 208.78762,184.26643 C 208.13174,184.99081 207.79908,185.90906 207.8596,186.69589 C 207.92012,187.48272 208.24139,188.01773 208.42547,188.37086 C 208.59181,188.68998 208.60095,188.78674 208.60654,188.74056 C 208.5811,188.76328 208.54674,188.78903 208.39529,188.90655 C 207.97535,189.2324 207.84175,189.23041 207.82942,189.23098 C 207.81709,189.23155 207.76965,189.23246 207.47481,189.10272 C 207.17996,188.97297 206.66823,188.71972 205.98092,188.67266 C 205.2936,188.62559 204.51427,188.81699 203.71744,189.25361 C 202.87715,189.71406 202.27658,190.36915 201.95194,191.03421 C 201.62729,191.69927 201.54971,192.30832 201.47661,192.7469 C 201.40351,193.18548 201.33491,193.44741 201.25781,193.58439 C 201.1807,193.72137 201.10838,193.83645 200.6693,194.02199 C 200.62302,194.04155 200.6593,194.03822 200.63912,194.05217 C 200.57166,193.97551 200.35375,193.62745 200.10343,193.10906 C 199.84059,192.56472 199.55558,191.88064 198.93397,191.25301 C 198.31237,190.62538 197.14906,190.20856 196.06691,190.47589 C 195.46795,190.62385 194.90627,190.98002 194.54284,191.44164 C 194.17941,191.90326 194.01324,192.41816 193.9317,192.89026 C 193.76863,193.83445 193.88315,194.70426 193.96188,195.48571 C 194.03923,196.25346 194.06243,196.92071 194.0147,197.17576 C 193.68914,197.1934 193.49038,197.13028 193.17721,196.90415 C 192.84198,196.66209 192.43526,196.21545 191.98512,195.68187 C 191.08482,194.61472 189.85816,193.01905 187.72224,192.90535 C 186.66767,192.84921 185.64974,193.31605 185.11171,193.97672 C 184.57367,194.6374 184.40787,195.30777 184.25159,195.80259 C 184.0953,196.29741 183.93325,196.60926 183.91961,196.62499 C 183.90597,196.64071 184.15433,196.6338 183.76871,196.57217 C 183.33417,196.50272 183.24785,196.41843 183.11231,196.26283 C 182.97676,196.10723 182.82559,195.79495 182.62943,195.33481 C 182.43328,194.87466 182.19045,194.26888 181.69386,193.67493 C 181.19728,193.08097 180.40506,192.57021 179.43794,192.36966 C 178.54214,192.1839 177.72447,192.24073 177.07638,192.54319 C 176.42829,192.84566 176.06792,193.3112 175.87674,193.53158 C 175.81544,193.60223 175.80656,193.60805 175.7862,193.62966 C 175.85865,193.61482 175.83152,193.66634 175.38632,193.47122 C 174.35406,193.0188 174.49076,192.95743 174.20932,192.33193 C 173.92787,191.70644 173.28738,190.50706 171.75722,189.67613 C 170.29682,188.88308 169.13113,188.72422 168.3771,188.57457 C 167.62308,188.42492 167.23608,188.35433 166.31734,187.54092 C 166.219,187.45385 166.2219,187.46703 166.20417,187.46547 C 166.22024,187.41051 166.40736,187.07112 166.72477,186.62799 C 167.04759,186.17731 167.49344,185.63037 167.70561,184.77948 C 167.91777,183.92859 167.61684,182.76607 166.85303,182.00296 C 166.08775,181.23838 165.08215,180.90921 164.22741,180.87122 C 163.37266,180.83324 162.63618,181.00326 162.0092,181.12775 C 161.38223,181.25224 160.86938,181.321 160.58322,181.29374 C 160.29705,181.26647 160.24823,181.27037 160.03998,180.99194 C 159.73451,180.58352 159.78461,180.5109 159.78346,180.5317 C 159.7823,180.5525 159.78865,180.47179 159.96453,180.17709 C 160.14042,179.88239 160.46666,179.4008 160.59076,178.69074 C 160.71486,177.98069 160.5676,177.13788 160.13807,176.32164 C 159.68116,175.4534 158.94642,174.84296 158.2292,174.57123 C 157.51199,174.29949 156.88128,174.29378 156.43352,174.26943 C 155.98575,174.24508 155.73759,174.19289 155.66394,174.15626 C 155.59028,174.11962 155.53585,174.14096 155.38478,173.70356 C 155.26418,173.35443 155.29275,173.50784 155.37723,173.39422 C 155.46171,173.2806 155.80622,173.00591 156.29771,172.69254 C 156.7892,172.37917 157.41326,172.01969 157.96513,171.37219 C 158.51701,170.72468 158.8862,169.66508 158.6819,168.6032 C 158.47359,167.52051 157.65303,166.65386 156.84849,166.32464 C 156.04394,165.99542 155.30834,165.98237 154.72082,165.93985 C 154.13729,165.89763 153.71055,165.80652 153.6419,165.77386 C 153.65278,165.75763 153.66624,165.7706 153.66454,165.65315 C 153.65185,164.77733 154.09389,164.39892 154.99244,163.5783 C 155.89099,162.75767 157.25359,161.52649 157.30118,159.52668 C 157.32373,158.57907 157.0592,157.74353 156.65232,157.14249 C 156.24544,156.54145 155.76512,156.17877 155.45268,155.92022 C 155.14024,155.66166 155.01747,155.51685 154.9849,155.45243 C 154.96254,155.40821 154.94611,155.31571 154.96226,155.14309 C 155.10115,155.18774 155.07937,155.17332 155.30178,155.27136 C 155.77747,155.48103 156.34885,155.82238 157.25591,155.7995 C 157.70944,155.78806 158.27347,155.61305 158.68944,155.24872 C 159.10542,154.88439 159.35168,154.4064 159.50429,153.90573 C 160.03558,152.16278 159.51408,150.72065 159.21759,149.83148 C 158.9211,148.94231 158.76774,148.69504 159.22513,147.82453 C 159.47008,147.35834 159.57947,147.28965 159.56465,147.29639 C 159.78045,147.29418 160.36707,147.29225 160.93783,147.00214 C 161.50858,146.71203 161.98598,146.22351 162.4619,145.52334 C 163.47421,144.03399 163.51985,142.54591 163.60118,141.55472 C 163.66693,140.75326 163.71262,140.29265 164.11423,139.76657 C 164.28872,140.16767 164.49227,140.68244 165.16297,141.16238 C 165.5433,141.43454 166.1442,141.60472 166.6795,141.52454 C 167.2148,141.44435 167.64311,141.20201 168.03758,140.89076 C 168.84519,140.25356 169.29622,139.32725 169.39567,138.52166 C 169.49511,137.71608 169.35139,137.0468 169.25986,136.50717 C 169.16833,135.96755 169.12964,135.55904 169.16177,135.36035 C 169.19391,135.16165 169.17452,135.12445 169.50129,134.90011 C 170.33956,134.32461 170.85509,134.38615 171.88549,134.47759 C 172.91588,134.56903 174.41951,134.74397 176.03518,133.93436 C 177.62607,133.13718 178.21846,131.72729 178.44201,131.0673 C 178.55378,130.7373 178.61359,130.61513 178.69099,130.52406 C 178.76567,130.4362 178.91438,130.30162 179.37758,130.13927 C 179.45121,130.26292 179.62286,130.60434 179.80764,131.14275 C 180.01304,131.74125 180.22413,132.47588 180.77338,133.18741 C 181.32263,133.89895 182.45408,134.47567 183.58009,134.31161 C 184.75403,134.14056 185.63065,133.35393 186.16799,132.56873 C 186.70533,131.78353 187.02709,130.94405 187.33745,130.19963 C 187.64782,129.45521 187.9483,128.80685 188.19757,128.47939 C 188.44684,128.15194 188.43843,128.16087 188.6729,128.17005 z "
       id="path1876" />
  </g>
</svg>
